<?xml version="1.0" encoding="UTF-8"?>
<svg id="Layer_1" data-name="Layer 1" xmlns="http://www.w3.org/2000/svg" xmlns:xlink="http://www.w3.org/1999/xlink" viewBox="0 0 387.78 361.01">
  <defs>
    <style>
      .cls-1, .cls-2, .cls-3, .cls-4, .cls-5, .cls-6 {
        fill: #fff;
      }

      .cls-7, .cls-5 {
        opacity: .9;
      }

      .cls-8 {
        fill: #b25b52;
      }

      .cls-2 {
        opacity: .5;
      }

      .cls-2, .cls-3, .cls-9, .cls-10, .cls-4, .cls-5, .cls-6, .cls-11 {
        isolation: isolate;
      }

      .cls-12, .cls-4 {
        opacity: .4;
      }

      .cls-3, .cls-10 {
        opacity: .1;
      }

      .cls-13 {
        opacity: .3;
      }

      .cls-14 {
        fill: #dd8c6a;
      }

      .cls-9, .cls-15, .cls-6, .cls-11 {
        opacity: .2;
      }

      .cls-16 {
        fill: #efb69a;
      }

      .cls-17 {
        fill: #ea6b3f;
      }

      .cls-18 {
        fill: #ffb573;
      }

      .cls-19, .cls-11 {
        fill: #c13b37;
      }

      .cls-20 {
        fill: #ff5652;
      }

      .cls-21 {
        fill: #ed893e;
      }

      .cls-22 {
        fill: #00abe7;
      }

      .cls-23 {
        fill: #c5f9f8;
      }

      .cls-24 {
        fill: #9d2724;
      }

      .cls-25 {
        fill: #263238;
      }
    </style>
  </defs>
  <g id="freepik--background-simple--inject-2">
    <path class="cls-22" d="m66.28,77.32c-19.48,21.34-37,50-37.33,82.94-.4,37.3,21.28,69.28,45.53,89.54,37.08,31,82.13,43.43,126.3,43.21,35.86-.18,72.91-9,102.3-35.53s49.47-73.54,43.27-119.18c-4.23-31.13-19.86-58.13-38.88-78-28.56-29.84-61.41-51.37-98.33-51-33.38.36-66.66,10.53-96.7,29.3-17.07,10.75-32.6,23.78-46.16,38.72Z"/>
    <path class="cls-5" d="m66.28,77.32c-19.48,21.34-37,50-37.33,82.94-.4,37.3,21.28,69.28,45.53,89.54,37.08,31,82.13,43.43,126.3,43.21,35.86-.18,72.91-9,102.3-35.53s49.47-73.54,43.27-119.18c-4.23-31.13-19.86-58.13-38.88-78-28.56-29.84-61.41-51.37-98.33-51-33.38.36-66.66,10.53-96.7,29.3-17.07,10.75-32.6,23.78-46.16,38.72Z"/>
  </g>
  <g id="freepik--Earth--inject-2">
    <circle class="cls-22" cx="192.96" cy="167.03" r="103.23" transform="translate(-61.59 185.37) rotate(-45)"/>
    <circle class="cls-6" cx="192.96" cy="167.03" r="103.23" transform="translate(-61.59 185.37) rotate(-45)"/>
    <path class="cls-2" d="m205.89,71.24l13,7.81v12.43s-9.87-1.35-13-6.73c0,0,2.69-1.14-4.94-5.7s-5.79-10.05,4.94-7.81Z"/>
    <path class="cls-2" d="m178.38,151.51h5.78l8.23,4.31,15.36,3.85.72,1.23-15.22-.25,2.82-1.76-2.26-1.43-6.13-.15.74-.75-6.34-3.25s-4-.94-4.13-.49l-1.64.2,2.07-1.51Z"/>
    <polygon class="cls-2" points="190.27 160.9 188.87 159.53 186.57 159.65 187.53 160.9 190.27 160.9"/>
    <path class="cls-2" d="m226.58,71.24h-1.8l12.79,7.67,2,2.19,12.57,7.24,2.47,3.14,2,7,6.73,5.39-3.14,2.24,7.18,9h2.51l.9-3.59-5.39-11.22,7.46,4.18s-15.97-24.97-46.28-33.24Z"/>
    <path class="cls-2" d="m279.2,112.57h-1.94l-3.24-4.26-3.46,9.42s2.14,11,2.3,11.67-1,2.25-1,2.25l1,12.12,2.49,4.26,1.91,10.32,8.46,11.65,6.83-9.8,1.13,2.4s1.13-24.89-14.48-50.03Z"/>
    <polygon class="cls-2" points="228.82 81.1 226.58 81.1 226.58 83.85 228.82 85.19 230.84 85.19 230.84 83.15 228.82 81.1"/>
    <polygon class="cls-2" points="242.51 86.54 245.88 90.13 246.77 93.14 250.14 96.41 251.49 94.4 253.95 96.41 253.95 94.17 252.16 91.48 242.51 86.54"/>
    <path class="cls-2" d="m92.71,166v9.3l2.85,16.06,3.92,7.76,2.26-6s-3-4.73-3-6.48,1.07-9.08,1.07-9.08l-2.62-2.29-2.92-6.48-1.56-2.79Z"/>
    <path class="cls-2" d="m277.56,184.26c.26-1-1.53-2.39-1.53-2.39l-2.29,1.67-4,6.15,3.37,3.12c.64-.93,1.72-1.47,2.85-1.43-.07-1.07,1.6-7.12,1.6-7.12Z"/>
  </g>
  <g id="freepik--character-6--inject-2">
    <path class="cls-22" d="m308.06,210c-.19,0-.38-.06-.54-.16l-32.95-21.23c-.48-.27-.65-.88-.37-1.36.27-.48.88-.65,1.36-.37.03.02.06.04.09.06l32.95,21.23c.46.3.6.92.3,1.38-.18.28-.5.46-.84.46h0Z"/>
    <path class="cls-22" d="m379.45,234.05c-3.78,9.91-11.59,17.75-21.5,21.55-3.3,1.29-6.76,2.1-10.29,2.4-.36,0-.73.07-1.09.08h-.15c-20.6,1.04-38.14-14.82-39.18-35.43-.19-3.69.18-7.4,1.08-10.98.23-.95.51-1.88.83-2.82h0c.16-.46.32-.92.5-1.39,7.35-19.27,28.94-28.94,48.21-21.59,19.27,7.35,28.94,28.94,21.59,48.21v-.03Z"/>
    <path class="cls-6" d="m379.45,234.05c-3.78,9.91-11.59,17.75-21.5,21.55-3.3,1.29-6.76,2.1-10.29,2.4-.36,0-.73.07-1.09.08h-.15c-20.6,1.04-38.14-14.82-39.18-35.43-.19-3.69.18-7.4,1.08-10.98.23-.95.51-1.88.83-2.82h0c.16-.46.32-.92.5-1.39,7.35-19.27,28.94-28.94,48.21-21.59,19.27,7.35,28.94,28.94,21.59,48.21v-.03Z"/>
    <path class="cls-14" d="m353.24,225l-2.65,5.62c-1.65.41-3.28.9-4.88,1.47h0c-.13.05-.26.11-.38.18l-1.09,1.42-.32.4-.68.89s-1.39-.62-2.74-1.25l-1.29-.59c-.17-.07-.33-.15-.49-.23h-.05l-.38-.18-.17-.07h0l-.34-.16h-.09l-.43-.21c-.62-.28-1.22-.59-1.81-.94-.69-.35-1.33-.78-1.91-1.3-.11-.12-.2-.25-.27-.39-.12-.21-.21-.43-.25-.67-.06-.84,0-1.68.16-2.5.24-1.37.61-2.67.61-2.67l3.22-4.23c.35.32.78.53,1.24.62,0,0,.13-.28.16,0,.48.06.98,0,1.42-.21.29-.16.55-.39.74-.66h0l.09-.12c.16-.22.33-.49.5-.76l.3-.53.11-.22c.07-.13.14-.26.2-.4.14-.27.25-.52.36-.75s.11-.22.15-.33c.2-.46.33-.79.33-.79l7.5-1.18h.26v.33h0c0,.2-.07.48-.12.82,0,.15,0,.31-.07.48-.01.08-.01.17,0,.25v.14h0c0,.42-.1.88-.16,1.35h0s0,.03,0,.05c-.06.55-.1,1.14-.12,1.72h0c-.18,1.39-.01,2.8.49,4.1.28.38.67.67,1.12.81l.17.07c.53.17,1.06.38,1.56.62Z"/>
    <path class="cls-10" d="m342.59,215.43c-.53,1.37-1.22,2.68-2.05,3.89,5.62,1.76,8.66-2.9,9.75-5.11l-7.7,1.22Z"/>
    <path class="cls-14" d="m355.34,205.78c-1.87,6.09-2.54,8.7-6.43,11.1-5.85,3.63-12.91,0-12.89-6.53,0-5.87,3.11-14.86,9.74-15.81,4.73-.73,9.16,2.51,9.9,7.24,0,0,0,.01,0,.02.21,1.33.1,2.7-.32,3.98Z"/>
    <path class="cls-11" d="m347.17,205.28c1.77-.21,3.37,1.04,3.58,2.81.1.8-.11,1.62-.58,2.27-.66.92-1.76,1.42-2.89,1.29-1.77-.19-3.05-1.77-2.87-3.54.08-.81.47-1.56,1.09-2.09.46-.43,1.05-.69,1.67-.74Z"/>
    <path class="cls-11" d="m337.33,203.82c-.11-.06-.23-.1-.35-.14-.58,2.04-.91,4.15-1,6.27,1.75.16,3.3-1.12,3.46-2.87.14-1.46-.74-2.82-2.12-3.3v.04Z"/>
    <path class="cls-25" d="m345.89,205.31c-.14.49-.52.82-.83.73s-.48-.56-.35-1.05.51-.82.83-.74.41.58.35,1.06Z"/>
    <path class="cls-25" d="m340.27,203.8c-.14.5-.51.82-.83.73s-.47-.56-.34-1,.51-.82.83-.73.47.5.34,1Z"/>
    <path class="cls-25" d="m340.06,202.81l-1.09-.66s.35,1.09,1.09.66Z"/>
    <path class="cls-19" d="m340.89,204.85c-.72,1.02-1.58,1.94-2.55,2.74.43.48,1.04.76,1.69.76l.86-3.5Z"/>
    <path class="cls-25" d="m341.73,211.17c-.25-.02-.51-.06-.75-.13-.08-.02-.13-.09-.12-.17h0c.02-.08.1-.12.18-.1,1.25.34,2.58.06,3.58-.76.06-.06.16-.06.22,0,.06.06.06.15,0,.21-.87.72-1.99,1.06-3.11.95Z"/>
    <path class="cls-25" d="m347.31,202.82c-.13.02-.26-.05-.32-.17-.55-.82-1.42-1.37-2.4-1.52-.16-.02-.28-.17-.26-.33,0,0,0,0,0,0,.02-.16.17-.27.32-.25,0,0,0,0,0,0h0c1.18.17,2.22.85,2.86,1.85.07.15,0,.33-.14.4h0l-.07.03Z"/>
    <path class="cls-25" d="m338.34,200.53c-.11-.01-.2-.08-.25-.18-.07-.15,0-.33.14-.4.87-.45,1.9-.45,2.77,0,.14.07.19.24.12.38,0,0,0,0,0,.01h0c-.08.14-.26.19-.4.11,0,0,0,0-.01,0h0c-.68-.35-1.49-.35-2.17,0-.05.05-.12.08-.19.09Z"/>
    <path class="cls-25" d="m345.63,204.37l-1.09-.67s.35,1.06,1.09.67Z"/>
    <path class="cls-25" d="m366.89,214.26c2.72,7.48-5.86,4-5.86,4-1.29,3.1-2.79,3.47-4,3-.96-.46-1.78-1.18-2.37-2.07-2.71,3.67-4.37,2.19-4.89.18h0c-.15-.59-.2-1.2-.14-1.81v-.12c.03-.43.18-.84.42-1.19h0c.09-.1.17-.2.24-.31h0c.25-.32.47-.65.67-1h0c.4-.7.72-1.45.93-2.23.05-.2.11-.39.15-.59s.12-.54.17-.81c.22-1.16.34-2.4.49-3.76.15-1.19.3-2.47.57-3.88,1.07-5.66-6.9-4.34-9.26-5.63-.74-.39-1.38-.77-1.95-1.12h0l-.51-.34s-.05-.03-.07-.05c-.52-.34-1.01-.71-1.48-1.11-.26-.23-.48-.44-.67-.64h0c-3.28-3.55,2.94-4.52,2.94-4.52-.42-6.77,5.21-4.94,5.21-4.94.2-.57.46-1.13.76-1.66,7.55.76,14.69,3.79,20.48,8.69-.1.95-.3,1.89-.62,2.8,9.06,4.4,1.65,10.81,1.65,10.81,5.26,5.13-2.86,8.3-2.86,8.3Z"/>
    <path class="cls-14" d="m355,210.61c-.65,1.02-1.68,1.74-2.86,2-1.57.32-2.25-1.12-1.72-2.55s1.89-3,3.42-2.7c1.09.2,1.81,1.24,1.61,2.33-.06.35-.22.68-.45.94v-.02Z"/>
    <path class="cls-25" d="m353.3,210.31c0,.63-.12,1.4-.71,1.63s-2,.08-2.43.48c-.31.37-.31.92,0,1.29.31.35.58.73.79,1.15.15.45-.09,1.07-.55,1.06-.31,0-.56-.28-.87-.31-.5-.05-.81.63-.62,1.1.25.45.65.81,1.13,1-.84-.2-1.6-.66-2.17-1.32-.17-.16-.26-.39-.27-.62.1-.35.44-.57.8-.51.34.06.67.14,1,.24.35.1.71-.04.91-.34.21-.43-.22-.88-.55-1.23-.47-.51-.78-1.35-.32-1.87s1.06-.61,1.92-.59c.7.06,1.32-.47,1.38-1.18,0-.02,0-.05,0-.07.06-1.08-.14-1.07,0-2.79.88.28.52,2.12.56,2.88Z"/>
    <path class="cls-25" d="m332.37,203.4c-.03.28.06.56.25.77.61.85,1.47,1.49,2.46,1.83-.55-.28-.98-.74-1.24-1.3-.19-.59-.38-1,.23-.88.36.07,1.26.05,1.63.09.56.06.92-.66.78-1.21-.21-.53-.48-1.03-.82-1.48-.26-.5-.33-1.22.12-1.55s2.29-.13,3-.32,1-1.12,1-1.88c0-.53.24-1.49.22-2.29h.05c.19-.1.41-.05.55.11.14.15.25.31.34.49.19.35,1,1.38,1.39,1-.09-.24-.21-.48-.34-.7-.32-.78-.86-1.46-1.55-1.95-.33-.1-.67-.1-1,0,0,0,0,.05-.06.07,0,.18,0,.36-.07.49-.16,1.33,0,1.49-.16,2.6-.09.86-.87,1.47-1.72,1.38-.02,0-.05,0-.07,0-1-.13-1.63-.22-2.39.5s-.32,1.62.19,2.28c.36.46.83,1,.53,1.55-.27.33-.73.45-1.13.3-.41-.11-.78-.34-1.2-.41s-.91.12-.99.52Z"/>
    <path class="cls-14" d="m306.23,215.73c.44-1.13.99-2.22,1.66-3.23,1.94-3.43,1.51-5.45,0-9.11-1.2-.41-4.55,1.75-4.55,1.75-.42.71-.8,1.44-1.12,2.2-1.64,4,.18,8.51.18,8.51-1.07,6.5-2,20.06-1.56,21.44,1,3.28,6.56,5.08,6.28.51s-1.51-20.26-.89-22.07Z"/>
    <path class="cls-22" d="m329.2,228.7c-2.45,5.29-6.05,9.95-10.55,13.65-2.19,1.81-4.73,3.42-7.56,3.6-3.37.38-6.67-1.17-8.53-4-2.18-3-3-5.29-3.11-11.22-.07-1.73.02-3.46.25-5.18.83-2.22,2.29-2.24,3.91-2.14,1.28.08,1.4-.21,2.62.16,2.47.76,3.25,3.34,3.58,6.1.78,6.54,5.93,0,7.42-2,3.2-4.17,7.42-9.15,13.4-10,.88-.13.58,0,1.31.55.72.64,1.09,1.58,1,2.53.01,2.48-.83,4.88-2.39,6.81l-1.35,1.14Z"/>
    <path class="cls-4" d="m329.2,228.7c-2.45,5.29-6.05,9.95-10.55,13.65-2.19,1.81-4.73,3.42-7.56,3.6-3.37.38-6.67-1.17-8.53-4-2.18-3-3-5.29-3.11-11.22-.07-1.73.02-3.46.25-5.18.83-2.22,2.29-2.24,3.91-2.14,1.28.08,1.4-.21,2.62.16,2.47.76,3.25,3.34,3.58,6.1.78,6.54,5.93,0,7.42-2,3.2-4.17,7.42-9.15,13.4-10,.88-.13.58,0,1.31.55.72.64,1.09,1.58,1,2.53.01,2.48-.83,4.88-2.39,6.81l-1.35,1.14Z"/>
    <path class="cls-10" d="m326.27,224.24l-3.58,5c-2.7,3.82-4.1,8.4-4,13.07h0s5.2-4,6.72-7.12.86-10.95.86-10.95Z"/>
    <path class="cls-22" d="m361.95,231.79l-4.35,9.66-.63.84-6.8,9.08h0l-.61.82c-1.09,1.45-1.97,3.05-2.62,4.75-.12.32-.23.65-.33,1l-.06.14c-.08.27-.15.55-.22.82.04-.25.07-.52.09-.81-9.58.47-18.98-2.75-26.25-9,.33-2.45.79-6.08,1.17-9v-.18c.27-2.11.5-3.81.61-4.37.89-3.95,2.33-7.74,4.3-11.28,1.12-2.23,2.46-4.34,4-6.3h0l.15-.12.09-.09h.09l.52.05h.46c.51.05,1,.11,1.66.22l1.13.21h.26l2.33.5c.35.06.74.15,1.14.24l.1,1.16.27,2.91c.02.17.04.35.08.52,0,1.06.06,2.19.07,3.24v3.93h0v.41l.12-.06h.08l.08-.06h0l.35-.19.24-.13h0l.26-.14.3-.17h.09l.36-.2.38-.2,1-.56.43-.23.44-.24,2.36-1.27.48-.26.46-.25.52-.27,2-1.05c.26-.15.52-.29.78-.41h0l.43-.21.41-.22,1.1-.57,1.08-.53c3.16,1.51,6.06,3.51,8.58,5.94l.12.11c.06.07.13.13.19.21l.16.16c.06.05.11.11.15.17h0c.06.1.11.2.15.31h0v.11h0c0,.05,0,.11,0,.16,0,.05,0,.1,0,.15v.06h0c0,.07,0,.14,0,.21.1.08.18.17.25.28Z"/>
    <g class="cls-12">
      <path class="cls-1" d="m361.95,231.79l-4.35,9.66-.63.84-6.8,9.08h0l-.61.82c-1.09,1.45-1.97,3.05-2.62,4.75-.12.32-.23.65-.33,1,0,.05,0,.09,0,.14-.09.27-.17.54-.24.82.04-.25.07-.52.09-.81-9.58.47-18.98-2.75-26.25-9,.33-2.45.79-6.08,1.17-9v-.18c.27-2.11.5-3.81.61-4.37.89-3.95,2.33-7.74,4.3-11.28,1.12-2.23,2.46-4.34,4-6.3h0l.15-.12.09-.09h.09l.52.05h.46c.51.05,1,.11,1.66.22l1.13.21h.26l2.33.5c.35.06.74.15,1.14.24l.1,1.16.27,2.91c.02.17.04.35.08.52,0,1.06.06,2.19.07,3.24v4.36l.12-.06h.15l.35-.19.24-.13h0l.26-.14.3-.17h.09l.36-.2.38-.2,1-.56.43-.23.44-.24,2.36-1.27.48-.26.46-.25.52-.27,2-1.05c.26-.15.52-.29.78-.41h0l.43-.21.41-.22,1.1-.57,1.08-.53c3.16,1.51,6.06,3.51,8.58,5.94l.12.11c.06.07.13.13.19.21l.16.16c.06.05.11.11.15.17h0c.06.1.11.2.15.31h0v.11h0c0,.05,0,.11,0,.16,0,.05,0,.1,0,.15v.06h0c0,.07,0,.14,0,.21.08.06.15.13.22.2Z"/>
    </g>
    <g class="cls-7">
      <path class="cls-1" d="m338.68,231.05h-.06s-.55-.45-1.36-1.14c-1.11-.94-2.71-2.3-4.1-3.46l-1.27-1.1-1.51-1.28c-.36-.32.07-5.34.16-6.35h0c0-.06,0-.11,0-.17l2.7.47,1.13.2.26.05,3.45.59v.15l.1,1.16.27,2.9c0,.18.05.36.08.53,0,1.06.06,2.19.08,3.24v4.23l.07-.02Z"/>
      <path class="cls-1" d="m361.97,230.74h0c-3.2.3-9.18,2.4-9.18,2.4l-13.9-2.06c1.33-.74,9.08-4.94,12.64-6.73l1.08-.54c3.16,1.5,6.06,3.51,8.58,5.94.11.1.21.21.31.32.11.1.21.21.3.33h0c.08.1.14.22.17.34Z"/>
    </g>
    <path class="cls-10" d="m356.97,242.29l-6.8,9.08h0l-.61.82c-1.09,1.45-1.97,3.05-2.62,4.75-.12.32-.23.65-.33,1,0,.05,0,.09,0,.14-.09.27-.17.54-.24.82.04-.25.07-.52.09-.81.05-.69.05-1.42.14-1.88.68-3.53,1.94-6.93,3.72-10.05.67-1.19,3-5.33,5.26-7.27,1.06-.92,2.1-1.35,2.94-.76-.32,1.45-.84,2.85-1.55,4.16Z"/>
    <path class="cls-22" d="m361.5,248.43c-1.36,2.3-2.55,4.7-3.55,7.17-3.3,1.29-6.76,2.1-10.29,2.4.65-1.78,1.52-4.09,2.51-6.6,1.63-4.06,3.57-8.68,5.37-12.51s3.4-6.75,4.49-7.81c.34-.33.62-.47.84-.4h0c.13.03.25.08.36.14.02,0,.04,0,.06,0,.27.13.52.28.75.46.61.47,1.15,1.03,1.58,1.67.74,1.51,1.11,3.17,1.07,4.85-.34,3.72-1.43,7.33-3.19,10.63Z"/>
    <g class="cls-12">
      <path class="cls-1" d="m361.5,248.43c-1.36,2.3-2.55,4.7-3.55,7.17-3.3,1.29-6.76,2.1-10.29,2.4.65-1.78,1.52-4.09,2.51-6.6,1.63-4.06,3.57-8.68,5.37-12.51s3.4-6.75,4.49-7.81c.34-.33.62-.47.84-.4h0c.13.03.25.08.36.14.02,0,.04,0,.06,0,.26.11.52.24.75.4.66.43,1.21,1.03,1.58,1.73.74,1.51,1.11,3.17,1.07,4.85-.34,3.72-1.43,7.33-3.19,10.63Z"/>
    </g>
    <g class="cls-7">
      <path class="cls-22" d="m338.68,231.05h-.06s-.55-.45-1.36-1.14c-1.11-.94-2.71-2.3-4.1-3.46l-1.27-1.1-1.51-1.28c-.36-.32.07-5.34.16-6.35h0c0-.06,0-.11,0-.17l2.7.47,1.13.2.26.05,3.45.59v.15l.1,1.16.27,2.9c0,.18.05.36.08.53,0,1.06.06,2.19.08,3.24v4.23l.07-.02Z"/>
      <path class="cls-22" d="m361.97,230.74h0c-3.2.3-9.18,2.4-9.18,2.4l-13.9-2.06c1.33-.74,9.08-4.94,12.64-6.73l1.08-.54c3.16,1.5,6.06,3.51,8.58,5.94.11.1.21.21.31.32.11.1.21.21.3.33h0c.08.1.14.22.17.34Z"/>
    </g>
    <path class="cls-25" d="m338.58,223.58l.1,7.47h.21l7.9-4.28s-6.16,1.17-8.21-3.19Z"/>
    <path class="cls-25" d="m338.6,230.55l-.08-.05-7.39-6.64c-.05-.05-.08-.11-.08-.18l.1-5.93c0-.13.1-.23.23-.23h0c.13,0,.23.1.23.23,0,0,0,0,0,.01l-.09,5.82,7.31,6.58c.09.09.09.23,0,.33,0,0,0,0,0,0-.06.06-.15.08-.23.06Z"/>
    <path class="cls-25" d="m339.69,230.67c-.12-.03-.2-.16-.17-.28s.16-.2.28-.17l12.82,1.78c2.86-1.06,5.83-1.77,8.86-2.12.12-.01.23.08.25.2.02.13-.07.24-.2.26,0,0,0,0,0,0-3,.35-5.96,1.06-8.79,2.11-.04,0-.08,0-.12,0l-12.88-1.75-.05-.03Z"/>
    <path class="cls-25" d="m344.51,235.78c.19-.71.09-1.46-.29-2.09-.33-.6-.85-1.09-1.47-1.38-.53-.24-1.08-.43-1.65-.55-.48-.11-.96-.26-1.42-.45l-.32-.16h0c-.09-.06-.18-.1-.27-.17h0l-.38-.21h0l-.38-.24c-.35-.22-.71-.44-1-.62-.2-.13-.42-.24-.64-.33h-.12c-1.03-.5-2.24-.47-3.25.08-.38.25-.69.59-.89,1-.93,1.67-.37,2.57,0,2.95.58.42,1.34.5,2,.21,1.08-.26,2.14-.63,3.14-1.12h0c.07-.03.15-.06.21-.11.28-.14.55-.31.8-.49.01.31.05.62.1.92,0,.03,0,.06,0,.09h0c.11.57.28,1.13.49,1.67.44,1.19,1.15,2.65,2.25,3.07l.18.06c1.29.23,2.57-.91,2.91-2.13Zm-10.24-2.5c-.74.2-1.24.17-1.54-.11-.55-.51-.54-1.36,0-2.38.17-.33.44-.61.76-.79.93-.44,2-.44,2.93,0,.55.26,1.08.57,1.59.91l.66.4s-.05,0-.07,0c-.43.34-.9.63-1.39.88-.94.46-1.93.83-2.94,1.09Zm7.44,4.07c-1.06-.28-1.77-1.9-2.11-2.83-.16-.45-.3-.91-.41-1.38-.13-.53-.19-1.07-.18-1.61h0l.5.25c.48.2.98.36,1.49.48.54.12,1.07.29,1.57.51.59.28,1.07.76,1.34,1.36.25.49.31,1.04.18,1.57-.3.96-1.4,1.92-2.38,1.65Z"/>
    <path class="cls-25" d="m333.09,240.08h0c-.11-.06-.16-.19-.11-.31,0,0,0,0,0-.01,1.49-2.89,3.28-5.61,5.34-8.12.12-.14.34-.16.48-.03.09.08.13.2.11.32-.6,2.92-1.01,5.87-1.23,8.84,0,.13-.1.23-.23.23-.13,0-.23-.1-.23-.23.22-2.82.59-5.62,1.13-8.39-1.92,2.37-3.59,4.93-5,7.64-.07.08-.18.1-.27.06Z"/>
  </g>
  <g id="freepik--character-5--inject-2">
    <path class="cls-22" d="m350.16,59.4c7.93,12.89,3.9,29.77-8.99,37.69,0,0,0,0-.01,0-4.79,2.95-10.38,4.35-16,4-.67-.03-1.34-.1-2-.2-14.99-2.04-25.49-15.84-23.45-30.83.96-7.04,4.61-13.43,10.18-17.82.83-.66,1.7-1.27,2.6-1.82,3.01-1.86,6.36-3.11,9.85-3.69h.15c.81-.13,1.62-.23,2.43-.28h0c9.57-.68,18.8,3.7,24.33,11.54.31.46.64.92.91,1.4Z"/>
    <path class="cls-6" d="m350.16,59.4c7.93,12.89,3.9,29.77-8.99,37.69,0,0,0,0-.01,0-4.79,2.95-10.38,4.35-16,4-.67-.03-1.34-.1-2-.2-14.99-2.04-25.49-15.84-23.45-30.83.96-7.04,4.61-13.43,10.18-17.82.83-.66,1.7-1.27,2.6-1.82,3.01-1.86,6.36-3.11,9.85-3.69h.15c.81-.13,1.62-.23,2.43-.28h0c9.57-.68,18.8,3.7,24.33,11.54.31.46.64.92.91,1.4Z"/>
    <path class="cls-22" d="m266.42,110.56c-.55,0-1-.44-1.01-.99,0-.36.19-.7.51-.88l62.55-36.11c.48-.27,1.08-.11,1.36.36.28.48.12,1.09-.36,1.37,0,0,0,0,0,0l-62.58,36.11c-.14.08-.3.13-.47.14Z"/>
    <path class="cls-18" d="m318,87.69c.14.22.28.46.41.69.71,1.29,1.33,2.62,1.84,4,1.18,3.18,2.31,6.7,5,8.73-.67-.03-1.34-.1-2-.2-3.19-.42-6.29-1.4-9.14-2.9-.24-.78-.43-1.58-.57-2.38-.24-1.38-1.05-6.43-.42-9.12.04-.19.1-.38.17-.57.13-.47.45-.86.89-1.07.82-.23,1.7.05,2.24.71.61.63,1.15,1.34,1.58,2.11Z"/>
    <path class="cls-25" d="m312.15,82.34c-.31,1.18-.18,2.44.37,3.53.86,1.06,2.06,1.79,3.39,2.06,1.38.45,3.1.83,4.11-.2s.66-2.63.22-3.94c-.67-2.01-1.46-3.97-2.35-5.89-2.5-5.42-5.27,1.84-5.74,4.44Z"/>
    <path class="cls-22" d="m351.45,85.79c-4.85,9.93-15.19,15.97-26.22,15.33-.67-.03-1.34-.1-2-.2-2.35-4.04-4.36-8.26-6-12.63-.13-.35-.24-.7-.35-1-.2-.6-.37-1.15-.52-1.67-.66-2.23-1-3.85-1.4-5.32-.05-.14-.08-.28-.1-.43-.41-1.98.37-4.01,2-5.21.34-.25.7-.5,1.08-.76s1-.68,1.6-1l.58-.36c2.89-1.58,5.86-3.01,8.91-4.27h0l.73-.3.83-.34c.68-.27,1.36-.51,2-.73h0c.15-.06.31-.11.47-.15h0l.36-.13c.06,0,1.14-.66,1.19-.68,1.61-.46,3.34.06,4.44,1.32h0c.23.28.44.58.6.9.12.24.22.49.29.75l.71.9.38.49.27.35h0l1.92,2.55.21.29.15.21.22.29c2.83,3.75,5.38,7.69,7.65,11.8Z"/>
    <path class="cls-2" d="m351.45,85.79c-4.85,9.93-15.19,15.97-26.22,15.33-.67-.03-1.34-.1-2-.2-2.35-4.04-4.36-8.26-6-12.63-.13-.35-.24-.7-.35-1-.2-.6-.37-1.15-.52-1.67-.66-2.23-1-3.85-1.4-5.32-.05-.14-.08-.28-.1-.43-.41-1.98.37-4.01,2-5.21.34-.25.7-.5,1.08-.76s1-.68,1.6-1l.58-.36c2.89-1.58,5.86-3.01,8.91-4.27h0l.73-.3.83-.34c.68-.27,1.36-.51,2-.73h0c.15-.06.31-.11.47-.15h0l.36-.13c.06,0,1.14-.66,1.19-.68,1.61-.46,3.34.06,4.44,1.32h0c.23.28.44.58.6.9.12.24.22.49.29.75l.71.9.38.49.27.35h0l1.92,2.55.21.29.15.21.22.29c2.83,3.75,5.38,7.69,7.65,11.8Z"/>
    <path class="cls-25" d="m318.43,72.46c-.35.6-.51,1.3-.46,2,.05,2.54.84,5.01,2.28,7.11-.38-1.42.46-2.88,1.88-3.26.68-.18,1.4-.09,2.01.26.77.44,1.61,1.29,2.37.82.27-.22.47-.52.57-.85l3-7.24c.42-.86.67-1.79.73-2.74.05-.98-.5-1.89-1.38-2.32-.44-.09-.88-.09-1.32,0-2.89.42-5.56,1.8-7.56,3.93l-2.12,2.29Z"/>
    <path class="cls-18" d="m324.36,61.38c4.17,5.25,5.93,7.23,4.15,9.15-1.49,1.6-2.52,3.56-4,5.17-1.13,1.21-3.03,1.28-4.24.15-.09-.08-.17-.17-.25-.26-.46-.56-.64-1.29-.48-2,.3-2.94-.59-4.11-.49-7l3-5.53c.32-.61,1.07-.84,1.67-.52.33.17.56.48.64.84Z"/>
    <path class="cls-9" d="m323.54,61.89c-.15-.67-.81-1.09-1.48-.94-.35.08-.65.3-.82.62l-3,5.53c.87.88,1,3.07,1.32,4.26,1.06-.34,2.5-2,3.28-2.81,1.02-1,1.72-2.29,2-3.69-.49-.96-.92-1.96-1.3-2.97Z"/>
    <path class="cls-18" d="m325.57,54.4c.21.71.42,1.38.61,2,1,3.32,1.48,5.57.08,8.23-2.5,4.78-9.33,5-12.14,1.06-2.52-3.55-4.25-10.32-.06-13.85,3.4-2.87,8-2.35,10.31.35.56.64.97,1.39,1.2,2.21Z"/>
    <path class="cls-25" d="m318.07,57.28c.06.41-.1.78-.37.82s-.54-.26-.6-.67.1-.77.37-.81.54.26.6.66Z"/>
    <path class="cls-25" d="m313.82,58.9c.06.41-.1.77-.36.82s-.54-.26-.6-.67.1-.78.37-.82.54.27.59.67Z"/>
    <path class="cls-25" d="m318.79,55.75c-.09.03-.19,0-.25-.06-.43-.44-1.05-.65-1.66-.56-.13.03-.26-.05-.29-.18,0,0,0,0,0,0h0c-.03-.13.05-.26.18-.29,0,0,0,0,0,0h0c.77-.12,1.55.14,2.1.69.1.1.1.25,0,.35l-.08.05Z"/>
    <path class="cls-25" d="m311.09,57.8c-.12.04-.26-.03-.3-.15-.02-.05-.02-.1,0-.15.2-.76.76-1.37,1.5-1.64.13-.04.26.03.3.16,0,0,0,0,0,0h0c.03.13-.04.26-.17.3h0c-.58.21-1.02.69-1.18,1.29-.01.08-.07.16-.15.19Z"/>
    <path class="cls-20" d="m314.43,59.35c-.18,1.15-.51,2.27-1,3.33.55.23,1.18.22,1.72-.05l-.72-3.28Z"/>
    <path class="cls-25" d="m314.89,64.27c1.78-1.24,3.67-2.33,5.64-3.24.05,1.43-.44,2.86-2.63,3.95s-3.01-.71-3.01-.71Z"/>
    <path class="cls-20" d="m318.51,63.54c-.86.38-1.6.99-2.12,1.77.52.04,1.04-.06,1.5-.31.86-.37,1.6-.98,2.12-1.76-.52-.04-1.04.06-1.5.3Z"/>
    <path class="cls-1" d="m315.1,64.14c.24.25.6.35.94.25,1.27-.64,2.48-1.38,3.64-2.2.38-.23.64-.62.69-1.06-1.82.88-3.59,1.89-5.27,3.01Z"/>
    <path class="cls-25" d="m321.89,46.3c-1.05-1.24-2.73-1.74-4.29-1.29.29.97,1.09,1.69,2.08,1.89-1.32-.48-2.71-.74-4.12-.77-.39-.06-.78.06-1.06.33-.25.4-.15.91.23,1.19.37.25.81.38,1.26.37-1.76-.96-3.94-.62-5.33.81.07.69.68,1.19,1.37,1.12.15-.01.29-.06.42-.12-.65-.02-1.3.1-1.9.35-.61.27-.99.89-.95,1.55.09.55.6.91,1.15.83.1-.02.2-.05.29-.1-.61.07-1.06.63-.98,1.24,0,.07.02.14.04.21.28.64,1.01.95,1.67.72.64-.27,1.03-.91,1-1.6-.38.52-.26,1.24.26,1.62.01.01.03.02.04.03.58.31,1.3.16,1.69-.37.36-.54.33-1.26-.07-1.77.06.55.55.95,1.1.89.55-.06.95-.55.89-1.1-.02-.23-.12-.44-.28-.6.8,1.27,2.28,1.94,3.76,1.71-.18-.73-.72-1.33-1.43-1.58.86.71,2.04.86,3.05.4l-.64-1c.85,1.12,2.37,1.49,3.65.9-.2-.55-.67-.96-1.25-1.08.52.48,1.33.44,1.81-.08.08-.08.14-.17.19-.27.3-.79.09-1.68-.52-2.25-.61-.56-1.32-.98-2.1-1.25.66-.4,1.5-.31,2.06.21.25-.68-.1-1.43-.78-1.68-.68-.25-1.43.1-1.68.78-.05.14-.08.29-.08.44-.28-.5-.78-.83-1.35-.89l.8.2Z"/>
    <path class="cls-9" d="m325.57,54.4c.21.71.42,1.38.61,2-.74.57-1.16,1.47-1.1,2.41-.08-1.16-1.26-2.76-1.85-3.72s-1.57-1.4-2-2.15c-1.1-1.79,1.52-1.47,3.17-.75.55.64.95,1.4,1.17,2.21Z"/>
    <path class="cls-18" d="m337.77,75.07l.78-.21.72-.2c.46-.14.91-.3,1.36-.45.9-.32,1.78-.66,2.66-1,1.76-.74,3.46-1.61,5.09-2.6,1.68-1,3.26-2.15,4.73-3.44,1.51-1.49,2.93-3.08,4.24-4.75.47-2.38,1.81.38-4.71-22.3-.27-1.08-1.41.6-2.5.87-.86.21-.82,1.21-.86,2.1l.83,11.26c0,.76-.05,1.5-.09,2.23l-.08,1.06c0,.34-.07.64-.11,1l.73-1.9c-1.99,2.21-4.36,4.04-7,5.42-1.38.74-2.8,1.41-4.25,2-.72.31-1.45.6-2.17.86l-1.11.38-.54.18-.48.14-.23.08c-2.13.58-3.39,2.78-2.8,4.91,0,.03.02.06.02.09.62,2.14,3.64,4.92,5.79,4.31h0l-.02-.04Z"/>
    <path class="cls-25" d="m346.61,68.88c.28.59.41,1.24.39,1.9-.24.98-.87,1.82-1.75,2.33-1.83,1.39-4.03,2.22-6.32,2.38-2.31.13-4.55-.87-6-2.67-1.43-1.87-1.43-4.47,0-6.34.99-.98,2.2-1.71,3.53-2.14,1.66-.69,5.17-3,7-2.15s2.5,4.97,3.15,6.69Z"/>
    <path class="cls-18" d="m327.61,57.41c-.19.95-.74,1.78-1.53,2.34-1,.66-1.77-.34-1.73-1.65s.63-2.92,1.75-3,1.79,1.09,1.51,2.31Z"/>
    <path class="cls-18" d="m352.72,40.59l-1.33-4.18-4.91,3.07s1.56,3.7,4,3.33l2.24-2.22Z"/>
    <path class="cls-18" d="m351.39,36.41l-1.22-3.26c-.21-.55-.81-.82-1.36-.62l-2.37.9c-.47.17-.75.65-.68,1.14l.72,4.91s3.2,1.28,4.91-3.07Z"/>
  </g>
  <g id="freepik--character-4--inject-2">
    <path class="cls-22" d="m192.79,74.34c-.55,0-1-.45-1-1v-32.11c0-.55.45-1,1-1s1,.45,1,1v32.11c0,.55-.45,1-1,1Z"/>
    <circle class="cls-22" cx="192.53" cy="27.5" r="27.5"/>
    <circle class="cls-6" cx="192.53" cy="27.5" r="27.5"/>
    <path class="cls-22" d="m172.73,43.2c1,1.19,2.07,2.39,3.11,3.59,1.34,1.73,2.94,3.23,4.76,4.44l2.51,1.1.55.23c2.51,1.16,5.48.07,6.64-2.44.34-.74.5-1.55.45-2.37-.14-5.4-.68-10.79-1.64-16.11-.31-1.9-.88-3.74-1.71-5.48-1.16-2-2.74,0-4.43,2.19-1.14,1.44-1.55,8.22,0,14.32-2.78-2-6.35-5.45-9.49-6.86-.65-.29-3.37,1.61-3.14,3.22.39,1.59,1.22,3.03,2.39,4.17Z"/>
    <path class="cls-22" d="m180.6,51.23c.77.5,1.62.87,2.51,1.1l-2.51-1.1Z"/>
    <path class="cls-4" d="m172.73,43.2c1,1.19,2.07,2.39,3.11,3.59,1.34,1.73,2.94,3.23,4.76,4.44l2.51,1.1.55.23c2.51,1.16,5.48.07,6.64-2.44.34-.74.5-1.55.45-2.37-.14-5.4-.68-10.79-1.64-16.11-.31-1.9-.88-3.74-1.71-5.48-1.16-2-2.74,0-4.43,2.19-1.14,1.44-1.55,8.22,0,14.32-2.78-2-6.35-5.45-9.49-6.86-.65-.29-3.37,1.61-3.14,3.22.39,1.59,1.22,3.03,2.39,4.17Z"/>
    <path class="cls-4" d="m180.6,51.23c.77.5,1.62.87,2.51,1.1l-2.51-1.1Z"/>
    <path class="cls-16" d="m172.94,36.88v-4.5l-4.89,1.85s1.21,3,3,4l1.89-1.35Z"/>
    <polygon class="cls-16" points="169.99 27.86 167.17 30.74 168.08 34.21 172.96 32.35 169.99 27.86"/>
    <path class="cls-25" d="m185.31,39c.94,3.56,3.7,8.22,5.88,14.16.02.06.05.12.09.17l.75.14h0l.66.13,14-2.62h0c.19-.11.37-.24.55-.36h0c.63-.43,1.26-.87,1.88-1.32-1.29-6.8-1.91-13.27-1.11-27.34.09-1.35-.94-2.51-2.29-2.6,0,0,0,0,0,0-.18-.01-.35-.01-.53,0-1.45.23-3.28.58-5.11,1.06-2.9.7-5.74,1.6-8.51,2.69-2.36,1-4.9,2.24-6.37,3-.85.46-1.36,1.37-1.3,2.33.03,3.57.51,7.11,1.42,10.56Z"/>
    <path class="cls-4" d="m193.06,33.22c.09.38-.15.75-.53.84-.38.09-.75-.15-.84-.53-.09-.38.15-.75.53-.84,0,0,0,0,0,0,.36-.09.73.13.82.5,0,.01,0,.02,0,.03Z"/>
    <path class="cls-4" d="m195.1,40.57c.04.38-.23.73-.62.78-.33.04-.64-.16-.74-.48-.09-.37.15-.74.52-.83,0,0,0,0,.01,0,.37-.08.74.16.83.53Z"/>
    <path class="cls-22" d="m202.73,19.83l-.44,1.17c-1.65,4.37-6.07,10.3-8,11.11-.64-1.01-1.5-1.86-2.53-2.47-1.01.7-1.69,1.78-1.87,3-1.74-2.24-2.58-5.05-2.35-7.88h0c1-.46,2-.94,3-1.35,2.77-1.09,5.62-1.99,8.52-2.69,1.2-.37,2.43-.67,3.67-.89Z"/>
    <g class="cls-13">
      <path class="cls-1" d="m202.73,19.83l-.44,1.17c-1.65,4.37-6.07,10.3-8,11.11-.64-1.01-1.5-1.86-2.53-2.47-1.01.7-1.69,1.78-1.87,3-1.74-2.24-2.58-5.05-2.35-7.88h0c1-.46,2-.94,3-1.35,2.77-1.09,5.62-1.99,8.52-2.69,1.2-.37,2.43-.67,3.67-.89Z"/>
    </g>
    <path class="cls-25" d="m177.21,9.94c1.07,3.35.87,6.98-.56,10.2-2.32,5.86,5.92,7.45,10.87,6,4.37-1.3,13.29-7.88,14.2-11.89s-3.65-3-6.5-9.29-7.59-4.24-11.63-3.36c-5.82-.05-7.85,4.4-6.38,8.34Z"/>
    <path class="cls-16" d="m189.94,20.28c1.53,1.34,2.82,3,1.42,5.56-.3.53-.41,1.15-.32,1.75.19,1,.95,1.76,3.65-.74,3.91-3.63,2.88-6.54,2.88-6.54-2.52-.2-5-4.85-6.19-7.57l-1.44,7.54Z"/>
    <path class="cls-9" d="m192.06,17.06c.62,1.13-.24,3.34-1,4.31-.32-.4-.68-.77-1.07-1.1l.86-4.45c.48.33.9.75,1.21,1.24Z"/>
    <path class="cls-16" d="m190.79,5.1c-2.42-2.61-6.5-2.77-9.11-.35,0,0,0,0,0,0-3.7,3.38-1.88,10.18.55,13.81,2.67,4,8.55,3.35,10.66-1.32,1.42-3.12.74-5-.62-9.54-.28-.97-.78-1.86-1.47-2.6Z"/>
    <path class="cls-25" d="m181.83,13.49c-.05-.1-.15-.18-.26-.21-.11-.02-.23,0-.33.07-.21.15-.31.41-.26.66l-.39.06c-.06-.39.11-.78.44-1l.12-.07c.37-.18.82-.03,1,.34l-.32.15Z"/>
    <path class="cls-25" d="m186.28,11.45c.11.37,0,.73-.22.81s-.54-.16-.66-.52,0-.73.22-.81.53.18.66.52Z"/>
    <path class="cls-25" d="m185.75,11h-1s.7.5,1,0Z"/>
    <path class="cls-21" d="m184.2,16c-.4.28-.91.36-1.38.24.28-.9.42-1.84.44-2.79l.94,2.55Z"/>
    <path class="cls-17" d="m187.7,15.06c.02-.06-.01-.12-.07-.14,0,0,0,0,0,0-.06-.01-.13.03-.14.09-.28.94-.99,1.69-1.92,2-.05.02-.08.08-.06.14h0c.02.05.08.08.14.06.17-.06.34-.13.5-.22.76-.41,1.32-1.1,1.56-1.93Z"/>
    <path class="cls-25" d="m177.41,6.75c-1.14,2.35,2.08,4.11,2.19,2.77.17-2.2,1.83-3.07,1.44-4.79-.61-2.73-2.49-.33-3.63,2.02Z"/>
    <path class="cls-25" d="m185.89,9h0c.05-.11,0-.25-.11-.3-.85-.3-1.78-.2-2.56.25-.1.06-.14.2-.08.3.06.11.2.15.31.09.64-.39,1.42-.47,2.13-.24.08.05.18.05.26,0l.05-.1Z"/>
    <path class="cls-25" d="m179.43,11.92c.2-.54.65-.95,1.21-1.1h0c.12-.02.2-.14.18-.26s-.14-.2-.26-.18h0c-.7.18-1.28.69-1.54,1.37h0c-.04.12.02.24.13.29.07.04.15.04.22,0,.03-.03.06-.08.07-.12Z"/>
    <path class="cls-25" d="m183.99,5.63c1.47-.05,2.87.57,3.84,1.67.38.56.83,1.08,1.34,1.54.54.39,2.43,2.06,3,2.34s.08-1.23.51-1.63c.47-.35.91-.74,1.31-1.17.46-.68.57-1.54.3-2.32-.28-.77-.75-1.46-1.36-2-3.46-3.24-8.89-3.06-12.13.4-.03.04-.07.07-.1.11-.5.55-1.26,1.91.47,2.06.47,0,.41-.31.84-.52.62-.3,1.29-.47,1.98-.48Z"/>
    <path class="cls-25" d="m195.65,8.16c-1.87-1.16-3.78-.74-5.48-.37-.79.24-1.62.33-2.44.25-1.87-.37-3.45-2.57-3.81-3.33-.37-.6-1.01-.98-1.72-1-.55.09-1.03.44-1.29.94-.17.67.03,1.38.51,1.88l-.22.15c-.54-.56-.75-1.37-.54-2.13.3-.58.85-.99,1.5-1.1.83,0,1.6.45,2,1.18.33.69,1.88,2.83,3.62,3.18.79.07,1.58-.02,2.34-.25,1.66-.36,3.71-.82,5.67.4l-.14.2Z"/>
    <path class="cls-3" d="m195.65,8.16c-1.87-1.16-3.78-.74-5.48-.37-.79.24-1.62.33-2.44.25-1.87-.37-3.45-2.57-3.81-3.33-.37-.6-1.01-.98-1.72-1-.55.09-1.03.44-1.29.94-.17.67.03,1.38.51,1.88l-.22.15c-.54-.56-.75-1.37-.54-2.13.3-.58.85-.99,1.5-1.1.83,0,1.6.45,2,1.18.33.69,1.88,2.83,3.62,3.18.79.07,1.58-.02,2.34-.25,1.66-.36,3.71-.82,5.67.4l-.14.2Z"/>
    <path class="cls-16" d="m194.71,10.19c-.28-.8-1.16-1.23-1.96-.94-.01,0-.02,0-.04.01-1.11.42-1.3,2.08-1.08,3.09s1.26,1.76,2.13.91c.65-.65,1.01-1.53,1-2.44.03-.21.02-.43-.05-.63Z"/>
    <path class="cls-22" d="m191.6,53.39c-.74,2.22.56,1.54,1.16,1.64h.35c4.81.05,9.53-1.34,13.54-4l.11-.08c.19-.11.37-.24.55-.36l-6.56,1.24-.59.12-2.51.47-.6.12-5.45.85Z"/>
    <g class="cls-12">
      <path class="cls-1" d="m191.6,53.39c-.74,2.22.56,1.54,1.16,1.64h.35c4.81.05,9.53-1.34,13.54-4l.11-.08c.19-.11.37-.24.55-.36l-6.56,1.24-.59.12-2.51.47-.6.12-5.45.85Z"/>
    </g>
    <path class="cls-22" d="m196.28,27.07c.94,3.13,6.52,14.53,13,13.47,1.03-.19,1.94-.76,2.57-1.6h0c4.46-4.23-2.87-18.36-4.09-19-1.75-.95-3.94-.3-4.89,1.46-.25.46-.39.96-.43,1.48-.24-.44-.45-.9-.64-1.37-.62-1.57-2.34-5.16-4-5.08-1,0-3.06.4-3.47,1.34s.39,4.12,1.95,9.3Z"/>
    <path class="cls-4" d="m196.28,27.07c.94,3.13,6.52,14.53,13,13.47,1.03-.19,1.94-.76,2.57-1.6h0c4.46-4.23-2.87-18.36-4.09-19-1.75-.95-3.94-.3-4.89,1.46-.25.46-.39.96-.43,1.48-.24-.44-.45-.9-.64-1.37-.62-1.57-2.34-5.16-4-5.08-1,0-3.06.4-3.47,1.34s.39,4.12,1.95,9.3Z"/>
    <g class="cls-15">
      <path d="m192.73,9.26v.29l.31,2.82.78,3.56-1-2c-.24-.52-.4-1.08-.45-1.66l-.24-2.73.6-.28Z"/>
    </g>
    <path class="cls-16" d="m197.79,17.09l-.45-5.72-4.63,1s1.3,4.08,2.76,5.24l2.32-.52Z"/>
    <polygon class="cls-16" points="195.7 7.76 192.41 9.11 192.73 12.33 197.34 11.37 195.7 7.76"/>
  </g>
  <g id="freepik--character-3--inject-2">
    <path class="cls-22" d="m106.57,110.1c-.18,0-.35-.05-.5-.14l-27.72-16c-.49-.26-.68-.86-.42-1.35.26-.49.86-.68,1.35-.42.02.01.05.03.07.04l27.72,16c.48.27.65.88.38,1.36-.18.32-.51.51-.88.51Z"/>
    <path class="cls-22" d="m86.09,84.62l-.07.43c-.3,1.62-.69,3.22-1.19,4.79-.2.62-.42,1.24-.65,1.85-.31.83-.66,1.66-1,2.45,0,.11-.09.21-.13.31-8.84,18.63-31.11,26.56-49.74,17.72-4.55-2.16-8.62-5.22-11.96-8.99-13.68-15.43-12.27-39.04,3.17-52.73,7.46-6.61,17.25-9.97,27.2-9.32,1.27.09,2.54.24,3.8.45l.39.07h0c.67.13,1.33.27,2,.43h0c4.02.95,7.86,2.56,11.35,4.78,10.91,6.93,17.46,19,17.33,31.92h0c-.02,1.62-.15,3.24-.37,4.85-.02.37-.07.67-.13.99Z"/>
    <path class="cls-6" d="m86.09,84.62l-.07.43c-.3,1.62-.69,3.22-1.19,4.79-.2.62-.42,1.24-.65,1.85-.31.83-.66,1.66-1,2.45,0,.11-.09.21-.13.31-8.84,18.63-31.11,26.56-49.74,17.72-4.55-2.16-8.62-5.22-11.96-8.99-13.68-15.43-12.27-39.04,3.17-52.73,7.46-6.61,17.25-9.97,27.2-9.32,1.27.09,2.54.24,3.8.45l.39.07h0c.67.13,1.33.27,2,.43h0c4.02.95,7.86,2.56,11.35,4.78,10.91,6.93,17.46,19,17.33,31.92h0c-.02,1.62-.15,3.24-.37,4.85-.02.37-.07.67-.13.99Z"/>
    <path class="cls-8" d="m103.68,53.74c-.45-4.27-3.33-5.47-4.43-4.94s-2.91,1.61-2.91,1.61c-.28,1.71-1.12,5.54-1,7.12.07,1.44.63,2.81,1.58,3.89.82.93,2.1,1.32,3.3,1,1.2-.46,2-2.34,2.32-3.55.35-1.41,1.35-3.36,1.14-5.13Z"/>
    <path class="cls-25" d="m94.3,85.93c-.75,2.21-1.48,4.32-2.15,6.18,0,.11-.07.21-.12.32-.05.15-.1.29-.17.43-.21.6-.55,1.14-1,1.59-.06.06-.13.11-.21.16-1.1.15-2.22.21-3.33.19-.73,0-1.46-.05-2.22-.12h-.09c-1.26-.12-2.56-.3-3.87-.53-1.48-.26-3-.58-4.49-1-2.51-.6-5-1.31-7.54-2h-.08c-1.64-.46-3.25-.92-4.83-1.35-1.39-.38-2-5.39-2.38-6.66-.13-.5-.23-.96-.3-1.38-.16-.66-.16-1.34,0-2,.24-.73.86-1.18,2-1.29,1.91-.02,3.81.26,5.64.82,2.34.6,5.78,1.46,9.37,2.36l2.15.54.62.16,2.05.52,1.62.4h.12c2.38.62,4.53,1.16,6.16,1.6,1.04.27,2.06.63,3.05,1.06Z"/>
    <path class="cls-9" d="m85.06,94.68h-.08c-1.26-.11-2.56-.3-3.88-.53-1.47-.26-3-.58-4.48-1-2.51-.6-5-1.31-7.54-2h-.08c.19-2.57-.08-7.77-.08-7.77,6.9,9.45,15.8,11.24,16.14,11.3Z"/>
    <path class="cls-9" d="m92.11,92.93l-.25-.07c-4.5-1.27-9.62-3.49-11-7.93-.11-.87.04-1.75.44-2.53l2.05.52,1.62.4h.12c.08.25.19.5.32.73l4.19,7c.5.84,2,.77,2.4,1.36.12.15.16.34.11.52Z"/>
    <path class="cls-25" d="m99.89,69.82c-1.65,4.6-3.67,10.67-5.54,16.11-.75,2.21-1.48,4.32-2.15,6.18-.24.88-.69,1.68-1.32,2.34-.06.06-.13.11-.21.16-1,.65-2.26.72-3.33.19-.79-.32-1.49-.82-2.05-1.46-2.21-2.66-2.4-6.46-.48-9.33.07-.23.16-.46.24-.69,1.6-4.58,4.12-11.42,6.06-15.59.68-1.47,2.35-5.83,3.47-7,2.43-1,4.26-.55,6.57,2.26,1.66,2.08-.51,4.6-1.26,6.83Z"/>
    <path class="cls-25" d="m69.27,90.23c-.07.32-.13.63-.2,1-1.18,5.77-2.55,12.77-4.18,21.13-11.9,5.45-25.78,4.29-36.61-3.07-.25-1.51-.51-3.11-.78-4.75v-.08s0-.03,0-.05c-.41-2.5-.82-5.09-1.21-7.59-.81-5.08-1.5-9.82-1.73-12.73,0-.54-.07-1-.08-1.42-.02-.25-.02-.49,0-.74h0c.11-2.47,1-6.76,3-8.83.39-.41.87-.73,1.39-.94,2.6-1,5.5-.81,8.37-.26h0c2,.39,4.07,1,6,1.35.1.01.19.03.29.06,3.54.72,7.09,1.09,10.61,1.83h0c1.41.28,2.8.64,4.17,1.09.56.18,1.11.38,1.66.59h0c1.24.48,2.44,1.06,3.6,1.72h0c2.2,1.1,4.06,2.78,5.37,4.86,1.2,2.27.78,4.54.33,6.83Z"/>
    <path class="cls-22" d="m58.76,78.55c1.43.29,2.72,1.04,3.68,2.14-4.9,5.76-11,9.2-11.2,8.95-5.77-3.09-12.58-8-15.79-13.82.85-.55,1.8-.92,2.8-1.11-1.49-3-1.77-5.88.51-8,1.51-1.43,4-1.66,6.09-1.17,2.09.61,4.1,1.45,6,2.5,5.06,2.37,10.54,3.73,16.12,4-3.45,1.07-6.38,3.39-8.21,6.51Z"/>
    <path class="cls-2" d="m58.76,78.55c1.43.29,2.72,1.04,3.68,2.14-4.9,5.76-11,9.2-11.2,8.95-5.77-3.09-12.58-8-15.79-13.82.85-.55,1.8-.92,2.8-1.11-1.49-3-1.77-5.88.51-8,1.51-1.43,4-1.66,6.09-1.17,2.09.61,4.1,1.45,6,2.5,5.06,2.37,10.54,3.73,16.12,4-3.45,1.07-6.38,3.39-8.21,6.51Z"/>
    <path class="cls-8" d="m48.15,61.4l8.1,8c-2,2.39-3.46,5.09-1.06,7.45,1.34,1.34,1.34,3.51,0,4.85-.06.05-.11.11-.18.16-1.47,1.29-4.94,4.61-4.94,4.61,0,0-6.51-7.48-7.75-10.18-.5-1.12.64-1.82,1.13-3,1.82-3.94,3.95-8.05,4.7-11.89Z"/>
    <path class="cls-9" d="m52.3,63.88l4,5.55c-.57.66-1.07,1.37-1.5,2.12-2.42,0-5.16-3.1-4.57-5,.51-1.02,1.21-1.92,2.07-2.67Z"/>
    <path class="cls-8" d="m48.2,52.58c-1.28,6-2.32,9.48-.15,13.32,3.26,5.76,11.34,5,14.38-.54,2.74-5,4.34-14-.82-17.88-3.73-2.82-9.05-2.08-11.87,1.65-.76,1.02-1.29,2.2-1.54,3.45Z"/>
    <path class="cls-25" d="m47.29,47.92c-.84,2.41-1.67,5.08-.71,7.45.57,1.4,1.76,2.69,1.54,4.2,1.41-2.58,4.16-7.16,3.87-10.2-.22-2.44-3.64-4.54-4.7-1.45Z"/>
    <path class="cls-8" d="m44.51,57.36c.32,1.43,1.17,2.68,2.38,3.5,1.54,1,2.71-.5,2.62-2.43-.1-1.75-1-4.39-2.71-4.55s-2.72,1.66-2.29,3.48Z"/>
    <path class="cls-25" d="m55.57,56.22c-.18.37-.03.81.33,1,.32.09.68-.23.81-.72s0-.94-.33-1-.68.24-.81.72Z"/>
    <path class="cls-25" d="m62.14,57.91c-.13.48,0,1,.33,1s.68-.23.81-.71,0-.94-.33-1-.68.23-.81.71Z"/>
    <path class="cls-24" d="m60.89,58c.18,1.62.58,3.21,1.19,4.73-.8.31-1.69.24-2.43-.18l1.24-4.55Z"/>
    <path class="cls-25" d="m59.29,53.33s.01.1,0,.15c-.03.16-.16.27-.32.26-.95-.07-1.8-.6-2.29-1.41-.07-.14-.03-.31.11-.38,0,0,.01,0,.02,0h0c.15-.07.32-.01.4.13h0c.4.64,1.08,1.05,1.83,1.11.11,0,.21.05.25.15Z"/>
    <path class="cls-25" d="m59.98,55.12s-.08-.07-.09-.12c-.03-.16.07-.32.23-.35.93-.2,1.89.04,2.61.66.11.11.11.3,0,.41h0c-.12.11-.3.11-.42,0h0c-.57-.48-1.34-.67-2.07-.5-.1.02-.2-.02-.26-.1Z"/>
    <rect class="cls-25" x="50.52" y="50.97" width=".67" height="6.2" transform="translate(-3.74 104.35) rotate(-89.4)"/>
    <path class="cls-25" d="m59.78,56.31s-.06-.08-.07-.13c-.03-.16.07-.32.23-.35.93-.2,1.89.04,2.61.66.11.11.11.3,0,.41h0c-.12.11-.3.11-.42,0h0c-.57-.48-1.34-.67-2.07-.5-.1.03-.21,0-.28-.09Z"/>
    <path class="cls-25" d="m66.31,54.35c-.1,0-.19-.05-.24-.13-.36-.66-1.02-1.09-1.77-1.16-.16,0-.29-.14-.28-.3,0,0,0,0,0,0,0-.15.12-.28.28-.28,0,0,.01,0,.02,0,.94.07,1.79.61,2.26,1.43.06.15,0,.31-.14.39-.04.03-.08.05-.13.05Z"/>
    <path class="cls-25" d="m60.41,54.52c.78.4,0,7.07-4.44,5.91-3.71-1-4.08-4.9-3.29-5.85,2.21-2.68,6.61-.58,7.73-.06Z"/>
    <path class="cls-25" d="m62.24,55.1c-.62.13-1.75,7.14,1.46,7.48,2.73.29,3.55-3.45,3.54-4.76-.78-2.89-4.11-2.93-5-2.72Z"/>
    <g class="cls-15">
      <path class="cls-1" d="m58.89,54.06l.83,4.87c-.43.73-1.11,1.28-1.92,1.53l-1.13-6.74c.75.06,1.49.18,2.22.34Z"/>
      <path class="cls-1" d="m55.64,53.62l1.18,6.89c-.28-.02-.55-.06-.82-.14-.18-.04-.35-.1-.52-.18l-1.12-6.55c.43-.04.85-.05,1.28-.02Z"/>
      <path class="cls-1" d="m65.99,56.08l.74,4.31c-.24.61-.62,1.16-1.11,1.59l-1.11-6.57c.52.17,1.01.39,1.48.67Z"/>
      <path class="cls-1" d="m65.05,62.36c-.25.12-.52.19-.79.21l-1.27-7.49c.29,0,.57.09.85.15l1.21,7.13Z"/>
    </g>
    <path class="cls-25" d="m59.03,64.83h0c-1.78-.16-3.38-1.18-4.27-2.73-.05-.09-.01-.21.08-.26h0c.09-.05.21-.01.26.08,0,0,0,0,0,0,.85,1.43,2.34,2.37,4,2.52.1.02.18.11.16.22,0,0,0,0,0,0-.01.1-.1.17-.2.16,0,0,0,0,0,0h-.03Z"/>
    <path class="cls-25" d="m49.49,42.67c.65-1.07,1.83-1.7,3.08-1.64,1.22.08,2.43.31,3.6.69,2.42.6,4.92.77,7.4.49,1.02-.17,2.06-.24,3.1-.22,1.05.02,2.05.51,2.71,1.33.83,1.44.52,3.27-.73,4.36-1.24,1.04-2.74,1.73-4.34,2-3.5.82-7.54,1.28-10.87-.43-2.01-1.06-5.17-4.1-3.95-6.58Z"/>
    <path class="cls-9" d="m25.11,84.05c7.9-5.45,8.5,7.12,7.35,12.56v.2c-1.46,6.67-5,7.72-5,7.72,0,0-4-20.79-3.5-20.8.12,0,.62.68,1.15.32Z"/>
    <path class="cls-25" d="m31.61,91.29c-1.98,1.65-3.79,3.5-5.38,5.53l-.18.21c-.66.77-1.39,1.66-2.21,2.65-.71.84-1.38,1.72-2,2.63-.21.3-.4.59-.58.87-2.84-3.2-5.12-6.87-6.71-10.84,1.81-3.83,3.85-8.69,6.56-12.54,1-1.46,2.9-4,2.91-4,.91-1.14,2.05-2.07,3.34-2.73h0c.49-.27,1.01-.49,1.55-.64,1.45-.23,3.38,8.66,3.62,14.26v1.43c.05.89-.1,1.79-.43,2.62-.04.07-.09.14-.14.2-.07.08-.16.14-.25.2h0l-.1.15Z"/>
  </g>
  <g id="freepik--character-2--inject-2">
    <path class="cls-22" d="m61.94,210.35c0,10.27-5.83,19.65-15.05,24.17l-.14.07c-.24.11-.47.23-.72.33h-.08c-.44.2-.89.38-1.34.55l-.43.15c-2.91,1.05-5.97,1.58-9.06,1.58h0c-3.1,0-6.17-.54-9.09-1.59-1.46-.53-2.86-1.18-4.21-1.95-.69-.4-1.36-.82-2-1.29l-.49-.35c-6.03-4.4-9.96-11.11-10.84-18.53-.09-.7-.14-1.4-.16-2.1h0v-1.07c-.29-14.84,11.51-27.11,26.36-27.39,14.84-.29,27.11,11.51,27.39,26.36,0,.35,0,.69,0,1.04l-.14.03Z"/>
    <path class="cls-6" d="m61.94,210.35c0,10.27-5.83,19.65-15.05,24.17l-.14.07c-.24.11-.47.23-.72.33h-.08c-.44.2-.89.38-1.34.55l-.43.15c-2.91,1.05-5.97,1.58-9.06,1.58h0c-3.1,0-6.17-.54-9.09-1.59-1.46-.53-2.86-1.18-4.21-1.95-.69-.4-1.36-.82-2-1.29l-.49-.35c-6.03-4.4-9.96-11.11-10.84-18.53-.09-.7-.14-1.4-.16-2.1h0v-1.07c-.29-14.84,11.51-27.11,26.36-27.39,14.84-.29,27.11,11.51,27.39,26.36,0,.35,0,.69,0,1.04l-.14.03Z"/>
    <path class="cls-22" d="m57.99,204c-.55,0-1-.44-1.01-.99,0-.36.19-.7.51-.88l37.8-21.82c.47-.3,1.08-.16,1.38.31.3.47.16,1.08-.31,1.38-.02.02-.05.03-.07.04l-37.8,21.82c-.15.09-.32.14-.5.14Z"/>
    <path class="cls-18" d="m55.13,179.55c-1.76-2.45-3.93-2.17-4.42-1.47s-1.21,2-1.21,2c.5,1.6,1.13,3.16,1.88,4.66.54.85,1.36,1.5,2.32,1.82.82.29,1.73.08,2.34-.54.58-.7.43-2.13.19-3-.29-.94-.34-2.46-1.1-3.47Z"/>
    <path class="cls-25" d="m60.61,202.39c.31,1.6.59,3.14.84,4.51v.23c0,.11,0,.21,0,.32.08.44.05.89-.07,1.32-.02.06-.05.12-.08.17-.63.48-1.3.91-2,1.28-.44.25-.9.47-1.39.7h0c-.81.37-1.66.7-2.54,1s-2,.68-3.06,1c-1.74.51-3.52,1-5.29,1.4h-.06l-3.4.86c-1,.25-3.12-2.57-3.76-3.23-.24-.23-.46-.48-.66-.74-.32-.34-.55-.74-.68-1.19-.1-.53.12-1,.8-1.49,1.15-.68,2.41-1.17,3.71-1.47l6.52-1.81,1.49-.43.44-.11,1.43-.4,1.12-.32h.09c1.66-.45,3.15-.87,4.3-1.17.74-.21,1.49-.35,2.25-.43Z"/>
    <path class="cls-9" d="m55.46,211.59h0c-.8.37-1.66.71-2.54,1s-2,.68-3.06,1c-1.73.5-3.52.95-5.28,1.39h-.06c-.78-1.63-2.75-4.7-2.75-4.7,4.27,2.04,9.12,2.51,13.69,1.31Z"/>
    <path class="cls-9" d="m61.71,207.4l-.18.05c-3.18.79-7.07,1.22-9.43-1-.37-.49-.58-1.08-.61-1.69l1.43-.4,1.12-.32h.09c.14.12.28.23.44.33l5,2.8c.6.33,1.5-.24,1.93,0,.1.05.17.13.21.23Z"/>
    <path class="cls-25" d="m58.38,190.66c.59,3.37,1.47,7.77,2.23,11.73.31,1.6.59,3.14.84,4.51.15.61.15,1.26,0,1.87-.02.06-.05.12-.08.17-.39.76-1.15,1.25-2,1.28-.59.08-1.19.01-1.75-.18-2.27-.85-3.7-3.09-3.54-5.51l-.09-.5c-.62-3.34-1.46-8.38-1.73-11.59-.09-1.13-.6-4.36-.31-5.45,1.14-1.42,2.4-1.81,4.78-.91,1.8.66,1.36,2.92,1.65,4.58Z"/>
    <path class="cls-22" d="m44.56,235.51l-.43.15c-2.91,1.05-5.97,1.58-9.06,1.58h0c-.26-9.32-2-18-5.93-24.61h0c-1.06-1.8-1.36-3.1-1.14-4,.66-.21,1.35-.39,2.05-.54,1.65-.33,3.32-.5,5-.53h1.59l.38.15c.29.1.58.23.84.39.37.25.71.55,1,.89.8.97,1.45,2.05,1.93,3.21.18.41.35.84.51,1.29.02.03.04.07.05.11,1.71,4.92,2.93,12.5,3.21,21.91Z"/>
    <path class="cls-2" d="m44.56,235.51l-.43.15c-2.91,1.05-5.97,1.58-9.06,1.58h0c-.26-9.32-2-18-5.93-24.61h0c-1.06-1.8-1.36-3.1-1.14-4,.66-.21,1.35-.39,2.05-.54,1.65-.33,3.32-.5,5-.53h1.59l.38.15c.29.1.58.23.84.39.37.25.71.55,1,.89.8.97,1.45,2.05,1.93,3.21.18.41.35.84.51,1.29.02.03.04.07.05.11,1.71,4.92,2.93,12.5,3.21,21.91Z"/>
    <path class="cls-25" d="m46.89,227.34v7.18l-.14.07c-.24.11-.47.23-.72.33h-.08c-.44.2-.89.38-1.34.55l-.43.15c-.29-8.55-1.29-15.62-2.87-20.48-.29-.88-.62-1.75-1-2.6-.45-1.11-1.05-2.16-1.78-3.11-.34-.44-.74-.82-1.2-1.13-.22-.14-.45-.26-.69-.35l-.64-.24h.92c1.04.05,2.07.18,3.09.39,1.36.31,2.51.81,2.91,1.61.21.43.41.87.6,1.3.53,1.25,1,2.53,1.39,3.83h0c1.22,4.06,1.89,8.26,1.98,12.5Z"/>
    <path class="cls-25" d="m19.56,231.41c-1.25-7.52-3.28-12.78-3.26-15.63,0-.44.07-.87.22-1.28,1.87-4.55,7.26-4.56,11.39-5.86h0c-.22.9.08,2.2,1.14,4h0c3.9,6.6,5.67,15.29,5.93,24.61-3.1,0-6.17-.54-9.09-1.59-1.46-.53-2.86-1.18-4.21-1.95-.69-.4-1.36-.82-2-1.29l-.12-1.01Z"/>
    <path class="cls-22" d="m27.45,210.46c.23.65.63,1.22,1.15,1.66,2.1,2.12,4.2,4.24,6.31,6.37,1-.87,1.82-1.57,3.24-2.76.88.43,1.82.71,2.79.84.08-1.35,2-2.48-2.68-7.63-1-1.14-3.43-1.87-5-2-4.9-.48-6.11,2.36-5.81,3.52Z"/>
    <path class="cls-18" d="m28.89,200.08c1,2.75.75,7.44,1.54,10.53.54,2.12,8.13,4.69,8.13,4.69,0,0,2.89-2.94.27-4.7-2.19-1.47-2.65-3.38-2.41-5.76l-7.53-4.76Z"/>
    <path class="cls-9" d="m31.98,202l4.46,2.81c-.08.66-.1,1.33-.06,2-1.53,0-3.83-1.34-4.21-2.88-.18-.63-.25-1.28-.19-1.93Z"/>
    <path class="cls-25" d="m36.66,197.14c.62-5.05-.73-7.28.53-10.31.94-.92,3.67.43,3.66,4.45s-4.19,5.86-4.19,5.86Z"/>
    <path class="cls-18" d="m42,198.38c.03.43.03.87,0,1.3-.45,4.92-6,7.95-10.16,4.79-.89-.66-1.62-1.51-2.13-2.5-.94-1.79-1.3-4.05-1.94-7.12-.24-.99-.24-2.01,0-3,.89-3.52,4.46-5.65,7.98-4.77,0,0,.02,0,.02,0,4.44,1.07,6.25,6.91,6.23,11.29Z"/>
    <path class="cls-25" d="m28.89,198.63l3.26.6-1.26-4.43,1.72-2.05-.07-3.22s-6.39.44-8.2.84c-.63.14-.88.81-.94,1.61-.11,2.29,1.09,4.44,3.1,5.54.76.45,1.56.82,2.39,1.11Z"/>
    <path class="cls-25" d="m38.61,200.48h0c-1.13.19-2.28-.19-3.09-1-.05-.05-.05-.12,0-.17,0,0,0,0,0,0,.04-.03.1-.03.14,0,.76.75,1.83,1.1,2.89.93.07-.01.13.03.14.1,0,0,0,0,0,.01h0c0,.06-.04.11-.1.12,0,0,0,0-.01,0h.03Z"/>
    <path class="cls-18" d="m30.98,199.26c.44,1.28-.07,2.53-1.27,2.55h0c-.17,0-.34-.02-.51-.06-1.18-.3-2.19-1.04-2.82-2.08-.65-.93-.42-2.22.51-2.87.24-.16.5-.28.79-.33,1.5-.26,2.8,1.38,3.27,2.66.02.04.03.09.03.13Z"/>
    <path class="cls-25" d="m34.48,195.15c0,.39.3.67.56.64s.41-.38.35-.77-.31-.67-.56-.64-.41.38-.35.77Z"/>
    <path class="cls-25" d="m38.89,194.52c0,.39.31.67.56.63s.41-.37.35-.77-.3-.66-.56-.63-.44.38-.35.77Z"/>
    <path class="cls-20" d="m38.15,194.91c.64,1.1,1.42,2.11,2.33,3-.51.45-1.2.64-1.87.52l-.46-3.52Z"/>
    <path class="cls-25" d="m33.57,193.93c.09,0,.17-.05.21-.12.26-.53.76-.91,1.35-1,.13-.01.22-.12.21-.25,0,0,0,0,0,0-.01-.13-.12-.22-.25-.21,0,0,0,0,0,0h0c-.73.1-1.37.55-1.71,1.21-.06.1-.03.24.07.3,0,0,0,0,.01,0,.03.03.07.05.11.06Z"/>
    <path class="cls-25" d="m41.18,192.74s.09,0,.13,0c.11-.07.14-.21.07-.32,0,0,0,0,0-.01-.41-.62-1.1-.99-1.84-1-.12,0-.22.11-.23.23,0,.13.1.23.23.23,0,0,0,0,.01,0h0c.58.03,1.12.35,1.43.84.06.04.14.05.21.03Z"/>
    <path class="cls-9" d="m42,198.38c.03.43.03.87,0,1.3-.45,4.92-6,7.95-10.16,4.8-.91-.65-1.65-1.5-2.18-2.48,0-.05,0-.11,0-.16h0c1.2,0,1.71-1.27,1.27-2.55,0-.04,0-.09,0-.13,1.1-.95,4.23-.68,5.42-.61,1.91.1,3.93.45,5.65-.17Z"/>
    <path class="cls-25" d="m23.12,189c-.23.92.18,1.88,1,2.35.8.45,1.72.66,2.64.61,2.33,0,4.61-.61,6.64-1.74,1.14-.79,2.38-1.42,3.69-1.88,1.34-.32,3,.11,3.54,1.4,1.01-2.09.14-4.6-1.95-5.61-.32-.15-.66-.27-1-.34-2.35-.48-4.6,1.07-7,1.45-1.16.12-2.33.16-3.5.14-1.18,0-2.33.34-3.3,1-.91.67-.76,2.62-.76,2.62Z"/>
    <path class="cls-9" d="m18.64,220.13c4.76-4.75,6.76,3.84,6.65,7.73v.14c-.16,4.78-2.4,6-2.4,6,0,0-5.38-13.82-5-13.89,0-.11.43.34.75.02Z"/>
    <path class="cls-25" d="m24.04,224.31c-1.23,1.44-2.28,3.01-3.15,4.69-.35.62-.76,1.32-1.2,2.12l-.17.34c-.13.22-.24.44-.34.65-2.46-1.83-4.59-4.06-6.29-6.61.61-2.67,1.44-5.28,2.5-7.8.25-.55.61-1.3.92-1.92s.58-1.18.59-1.19c.69-1.25,1.73-2.28,3-2.94,1-.35,3.42,5.53,4.3,9.36.06.29.12.58.17.86v.13c.12.61.12,1.24,0,1.85-.02.06-.05.11-.08.16-.04.06-.09.12-.14.17h0s-.08.08-.11.13Z"/>
  </g>
  <g>
    <path class="cls-23" d="m216.29,184.9s0,.02,0,.02c0,0,0-.02,0-.02Z"/>
    <path class="cls-23" d="m216.37,185.07s0,.02.01.02c0,0,0-.02-.01-.02Z"/>
    <path class="cls-23" d="m216.22,184.72s0,.02.01.03c0,0,0-.02-.01-.03Z"/>
    <path class="cls-23" d="m216.51,185.38s0,.01,0,.02c0,0,0-.01,0-.02Z"/>
    <path class="cls-23" d="m216.81,186.01s0,0,0,0c0,0,0,0,0,0Z"/>
    <path class="cls-23" d="m216.84,186.06s0,0,0,0c0,0,0,0,0,0Z"/>
    <path class="cls-23" d="m216.69,185.77s0,0,0,0c0,0,0,0,0,0Z"/>
    <path class="cls-23" d="m216.77,185.95s0,0,0,.01c0,0,0,0,0-.01Z"/>
    <path class="cls-23" d="m216.73,185.87s0,0,0,0c0,0,0,0,0,0Z"/>
    <path class="cls-23" d="m216.63,185.66s0,.01,0,.02c0,0,0-.01,0-.02Z"/>
    <path class="cls-23" d="m216.99,186.18s-.02-.02-.03-.02c.01,0,.02.02.03.02Z"/>
    <path class="cls-23" d="m216.91,186.12s-.02-.01-.02-.02c0,0,.01,0,.02.02Z"/>
    <path class="cls-23" d="m217.04,186.22s-.03-.02-.04-.03c.01.01.03.02.04.03Z"/>
    <path class="cls-23" d="m216.95,186.15s-.02-.01-.03-.02c0,0,.02.01.03.02Z"/>
    <path class="cls-23" d="m216.06,184.36s0,0,0,.01c0,0,0,0,0-.01Z"/>
    <path class="cls-23" d="m217.17,186.32s-.04-.03-.06-.05c.02.02.04.03.06.05Z"/>
    <path class="cls-23" d="m217.1,186.27s-.04-.03-.05-.04c.02.01.03.03.05.04Z"/>
    <path class="cls-23" d="m215.98,184.16s0,.02.01.03c0,0,0-.02-.01-.03Z"/>
    <path class="cls-23" d="m215.9,183.97s0,.02.01.03c0-.01,0-.02-.01-.03Z"/>
    <path class="cls-23" d="m215.82,183.77s.01.03.02.04l-.02-.04Z"/>
    <path class="cls-23" d="m216.88,186.1s-.02-.01-.02-.01c0,0,.01,0,.02.01Z"/>
    <path class="cls-23" d="m221.13,187.71s0,0,0,.03c0-.02,0-.03,0-.03Z"/>
    <path class="cls-23" d="m221.23,187.97s0,0,0,0c0,0,0,0,0,0Z"/>
    <path class="cls-23" d="m221.18,187.82s0,.01,0,.02c0,0,0-.01,0-.02Z"/>
    <path class="cls-23" d="m221.14,187.73s0,.02.01.03c0-.01,0-.02-.01-.03Z"/>
    <path class="cls-23" d="m221.16,187.77s0,.02.01.03c0-.01,0-.02-.01-.03Z"/>
    <polygon class="cls-23" points="221.93 192.23 221.93 192.23 221.89 192.25 221.93 192.23"/>
    <polygon class="cls-23" points="221.93 192.38 221.89 192.25 221.93 192.38 221.93 192.38"/>
    <polygon class="cls-23" points="220.81 196.39 220.92 196.49 220.92 196.49 220.81 196.39"/>
    <path class="cls-23" d="m183.69,201.16h.87v.61h8.15l.87.83h3.25l1.01.43,4.03-1.04h0l-2.42-2.17v-6.12h3.14l.43-.97v-2.87h-1.3s-.27-.32-.49,0c-.22.32-1.35.32-1.35.32l-.22-.47.38-.58-.27-1.66-.32-.76v-1.57s-.76-.7-.6-.97c.16-.27.6-.87.6-.87l-.62-.27h-1.82v-.6h-1.79l-.27.6v1.24l-1.14.05-.36-.22-.83.32-.76.11-.65-.43s-1.08-1.89-1.08-2.11v-1.62h-6.66l-1.05.65v.27l.65.65s.22.47.22.61,1.05,2.96,1.05,2.96l-.4.61v.72l1.37,3.21-.4.29-.22,2.2-.76.54-.9,1.19-.07.72-.43.4-.11.83s-.54,2.16-.54,2.27-.4.4-.4.4v2.63l1.19.22,1.01-.61Z"/>
    <g>
      <path class="cls-23" d="m236.3,169.9s.01-.01.02-.02c0,0-.01.01-.02.02Z"/>
      <path class="cls-23" d="m236.18,170.06s.02-.03.03-.04c-.01.01-.02.03-.03.04Z"/>
      <path class="cls-23" d="m235.95,170.35s.04-.05.05-.07c-.02.02-.04.05-.05.07Z"/>
      <path class="cls-23" d="m236.05,170.21s.03-.04.05-.06c-.02.02-.03.04-.05.06Z"/>
      <path class="cls-23" d="m236.39,169.79s.07-.08.1-.12c-.03.04-.06.08-.1.12Z"/>
      <path class="cls-23" d="m233.33,171.07v-6.71l.29-.25,1.35-2.34h-1.64l-.34-.53-1.57.53-.7.96-2.6-.35-1.89-1.57h-4.38l-.7.38v.58l.65.5-.16,1.19,1.24.92.05.81.16,1.14-1.95,1.95v1.03l1.41.69s.05.39-.16.39h-1.24v.97l6.12,3.52s-.22.7.05.92c.2.16,2.07,1.53,2.98,2.19l.56-1.03s.29-.58.29-.83.61-.72.61-.72l.25-1.12.94-.43v-.69s.79-.32.97-.32.36-.36.36-.36l.4-.51-.17.22-1.17-1.12Z"/>
      <path class="cls-23" d="m236.52,169.62s.04-.05.06-.07c-.02.02-.04.05-.06.07Z"/>
      <path class="cls-23" d="m236.83,169.23s.03-.04.05-.06c-.02.02-.03.04-.05.06Z"/>
      <path class="cls-23" d="m236.63,169.48s.04-.05.05-.07c-.02.02-.04.05-.05.07Z"/>
      <path class="cls-23" d="m236.73,169.36s.04-.05.06-.07c-.02.02-.04.05-.06.07Z"/>
      <path class="cls-23" d="m235.69,170.67c.04-.05.08-.1.12-.16-.04.05-.08.11-.12.16Z"/>
      <path class="cls-23" d="m234.85,171.74s.06-.08.09-.12c-.03.04-.07.08-.09.12Z"/>
      <path class="cls-23" d="m234.98,171.57s0,0,0,0c0,0,0,0,0,0Z"/>
      <path class="cls-23" d="m235.11,171.41c.05-.07.11-.14.17-.22-.06.08-.12.15-.17.22Z"/>
      <path class="cls-23" d="m234.73,171.89s.06-.08.1-.12c-.04.05-.07.09-.1.12Z"/>
      <path class="cls-23" d="m234.67,171.97s0,0,0,0c0,0,0,0,0,0Z"/>
      <path class="cls-23" d="m235.84,170.48s.03-.04.05-.06c-.02.02-.03.04-.05.06Z"/>
      <path class="cls-23" d="m235.31,171.15s.03-.04.05-.06c-.02.02-.03.04-.05.06Z"/>
      <path class="cls-23" d="m235.5,170.92s.03-.04.05-.06c-.02.02-.03.04-.05.06Z"/>
      <path class="cls-23" d="m235.61,170.77s.02-.02.03-.03c0,.01-.02.02-.03.03Z"/>
      <path class="cls-23" d="m235.4,171.04s.04-.05.06-.07c-.02.02-.04.05-.06.07Z"/>
    </g>
    <path class="cls-23" d="m240.47,165.84c.04-.18.4-.11,1.08-.54s2.63-2.53,2.63-2.53l2.85-4.04.22-.83s.47-1.26.58-1.41c.11-.14.25-.58.25-.58l2.27-3.97v-.97l.47-.72.29-.4-.14-.69-.14-.54v-.32s.25-.97.29-1.15l-.58-.22-.76.22s-.54.54-.72.54-.83.47-.83.47c0,0-1.7-.11-1.88-.11s-.58.58-.58.58l-1.66.07s-1.52.54-1.7.54-1.19-.22-1.19-.22l-1.26.69s-.9,0-1.15-.11c-.25-.11-1.41-1.41-1.52-1.52-.09-.09-.29-.24-.37-.3l-.9,1.85,1.62,2.16s2.53,1.15,2.74,1.26c.22.11,2.96,1.41,3.32,1.33.36-.07,1.88,0,1.88,0l-5.38,5.84h-2.06l-1.26.47-.22.65h-1.48l-1.59,2.74-.29.25v6.71l1.17,1.12.17-.22s1.95-2.49,2.78-3.5c.83-1.01,2.99-2.45,3.03-2.63Z"/>
    <path class="cls-23" d="m234.12,144.45l.18.97.87.83h.58l1.1-.68c-.05-.14-.09-.26-.09-.26l-.76-.04s-.18-.79-.29-1.05c-.11-.25-1.23-.43-1.23-.43l-1.08-1.44s-.54-.65-1.01-.83c-.47-.18-.76-.22-.94-.25-.18-.04-.25-.47-.25-.47l-.51.04-.51-1.23-.79-1.52-.61-1.19-.35-1.4-.84.9-.76.25-.65.76h-.54l-.43,1.01.32.9-1.15,1.41.51,1.84.22.14s.97-.22,1.19-.22-.04.14,0,.25c.04.11.58.29.58.29l.32-.29.22-.99h.29l.35.74,1.06-.14s.22-.47.32-.58c.11-.11.29.36.29.36h.83l2.24.9.54,1.12.79.29Z"/>
    <path class="cls-23" d="m243.72,154.41c-.36.07-3.1-1.23-3.32-1.33-.22-.11-2.74-1.26-2.74-1.26l-1.62-2.16.4-.83-1.61.14-.44-.76.27-1.26.5-.69-.87-.83-.18-.97-.79-.29-.54-1.12-2.24-.9h-.83s-.18-.47-.29-.36c-.11.11-.32.58-.32.58l-1.06.14-.35-.74h-.29l-.22.99-.32.29s-.54-.18-.58-.29c-.04-.11.22-.25,0-.25s-1.19.22-1.19.22l-.22-.14v1.52l-.78.43.27.7-1.03,1.03-1.03.32v3.25l-.49-.6-.7.05-.38,2.16.38.92v1.03h-1.89v1.03l1.46.27,2.16,3.08.22,1.3h.97l.5,1.73h1.66l1.89,1.57,2.6.35.7-.96,1.57-.53.34.53h1.64l-1.08,1.87,1.31-2.27h1.48l.22-.65,1.26-.47h2.06l5.38-5.84s-1.52-.08-1.88,0Z"/>
    <path class="cls-23" d="m234.83,148.96l1.61-.14.5-1.02h0s-.03-.02-.03-.02l-.36.14-.32-.43.87-.83s-.07-.58-.11-.69c-.02-.06-.08-.24-.13-.39h0l-1.1.68h-.58l-.5.69-.27,1.26.44.76Z"/>
    <path class="cls-23" d="m218.25,148.96l.99-.32.31.32.14.54s-.22.43.14.94c.36.51.36,1.23.36,1.23l.69.11-.13-.32.38-2.16.7-.05.49.6v-3.25l1.03-.32,1.03-1.03-.27-.7.78-.43v-1.52l-.51-1.84,1.15-1.41-.32-.9.43-1.01h.54l.65-.76.76-.25.84-.9.35,1.4-.36-1.44s-.65-.14-.87-.25c-.22-.11-.65-.83-.65-.83l-.47-.04-1.01-3.97.18-.65-.47-.97-.14-.9-1.05-.83-.61-.04-.58-.83-.61.69h-.51v.58l-.51.43h-.79v.72l-.65.43h-.45l-.41-.58h-14.36v3.75h-1.37v.72h-.36v7h-1.66v1.23s-1.37.33-1.37.63v2.76l-.51.43,1.01.94v1.37l.87,1.22.29.47v.69l.87.72s.51.65.29,1.08-.79,1.28-.58,1.43c.22.15.65.44.65.44h.58l.36.36s-.51.36,0,.36,1.37,1.03,1.37,1.03l1.8-3.26,1.66.14.43,1.3.72.07.43-.44h.58l.87.87,1.44.07.22-.95,1.08-.18.36-.6,1.08.6s.29.17.65.18c.36,0,.79,0,.79,0l.51-.57.87-1.08v-1.52l-.51-.29.36-.47Z"/>
    <path class="cls-23" d="m223.08,159.08l-.22-1.3-2.16-3.08-1.46-.27v-1.03h1.89v-1.03l-.38-.92.13.32-.69-.11s0-.72-.36-1.23c-.36-.51-.14-.94-.14-.94l-.14-.54-.31-.32-.99.32-.36.47.51.29v1.52l-.87,1.08-.51.57s-.43,0-.79,0c-.36,0-.65-.18-.65-.18l-1.08-.6-.36.6-1.08.18-.22.95-1.44-.07-.87-.87h-.58l-.43.44-.72-.07-.43-1.3-1.66-.14-1.8,3.26.29.51.87.41s.72.29.94.51l.22.22v.55s.36,1.13.58,1.08c.22-.05,1.15,0,1.15,0v1.62s1.15.6,1.44.84c.29.23,1.44.52,1.44.52l.94-.52.65-.27.58.79.43.65s.07.63.51.75l.43.12.51-.12.94-.32.43.32h1.15l.85-.39.88-.14,1.01-.43v-.58l.7-.38h2.72l-.5-1.73h-.97Z"/>
    <path class="cls-23" d="m204.14,114.36s-.04,14.07.32,14.07h14.36l.41.58h.45l.65-.43v-.72h.79l.51-.43v-.58h.51l.61-.69-.22-1.48.36.07.18-.25s-.79-.32-.97-.4c-.18-.07-2.31-3.9-2.31-3.9l-.22-1.08-.79-1.52-.04-.61-.32-.04-1.48-2.06v-.47l-.32-.22-.04-.65.32-.4s.47,1.01.51,1.15c.04.14.47.4.58.58s.04.72.04.72c0,0,.61.76.72.9.11.14.72.65.72.65l.58-.04.32-2.35.22-1.05-1.19-3.07-.54.36-1.44.11-1.66-.25-.47-.51-2.38-.11-.32.32-.94,1.05-1.15-.29s-1.91-.43-2.16-.47c-.25-.04-1.88-.94-1.88-.94l-2.31.22-.32.58.32.72-.32,1.23.32,1.66Z"/>
    <g>
      <path class="cls-23" d="m206.53,110c.14.08.43.24.75.4-.31-.17-.61-.33-.75-.4Z"/>
      <path class="cls-23" d="m206.45,109.96s.02,0,.05.03c-.03-.02-.05-.03-.05-.03Z"/>
      <path class="cls-23" d="m204.47,128.43c-.36,0-.32-14.07-.32-14.07l-.32-1.66.32-1.23-.32-.72.32-.58-.61-.76h-.9s-1.19-.36-1.3-.36-.69-.29-.69-.29l-.29-.69s-.94-.36-1.05-.36-1.66-.11-1.66-.11l-2.38,1.41v.69c0,.14.54,1.08.54,1.08,0,0-.14.76-.18.9-.04.14-.94.83-.94.83l-.76.43s-1.62-1.52-1.73-1.59c-.11-.07-2.27-.54-2.27-.54,0,0-1.59-.18-1.8-.22-.22-.04-.61-1.01-.69-1.12-.07-.11-.11-.51-.11-.51l-.32-.43-1.12-.14s-.83-.32-.97-.4-1.19-.18-1.44-.18-.61.25-.76.25-1.52-.72-1.52-.72l-.55-.35v1.72l-.93.36-.72.87h-.43l.65,1.37-.65.65s-1.08-.07-1.08.29v1.66l.79,1.48.14,1.84s-.51.29-.51.87.51,1.68.51,1.68c0,0-1.23.04-.94.51.29.48.79,1.05.87,1.49.07.43.07,1.27.07,1.27,0,0,.24.68.62.68h2.26l.36,1.52,3.25.9.36.51,3.54-.83,13.93,7.07h.36v-.72h1.37v-3.75Z"/>
    </g>
    <path class="cls-23" d="m218.25,148.96l.99-.32.31.32.14.54s-.22.43.14.94c.36.51.36,1.23.36,1.23l.69.11-.13-.32.38-2.16.7-.05.49.6v-3.25l1.03-.32,1.03-1.03-.27-.7.78-.43v-1.52l-.51-1.84,1.15-1.41-.32-.9.43-1.01h.54l.65-.76.76-.25.84-.9.35,1.4-.36-1.44s-.65-.14-.87-.25c-.22-.11-.65-.83-.65-.83l-.47-.04-1.01-3.97.18-.65-.47-.97-.14-.9-1.05-.83-.61-.04-.58-.83-.61.69h-.51v.58l-.51.43h-.79v.72l-.65.43h-.45l-.41-.58h-14.36v3.75h-1.37v.72h-.36v7h-1.66v1.23s-1.37.33-1.37.63v2.76l-.51.43,1.01.94v1.37l.87,1.22.29.47v.69l.87.72s.51.65.29,1.08-.79,1.28-.58,1.43c.22.15.65.44.65.44h.58l.36.36s-.51.36,0,.36,1.37,1.03,1.37,1.03l1.8-3.26,1.66.14.43,1.3.72.07.43-.44h.58l.87.87,1.44.07.22-.95,1.08-.18.36-.6,1.08.6s.29.17.65.18c.36,0,.79,0,.79,0l.51-.57.87-1.08v-1.52l-.51-.29.36-.47Z"/>
    <path class="cls-23" d="m206.53,110c.12.07.36.2.63.34-.27-.14-.51-.27-.63-.34Z"/>
    <g>
      <path class="cls-23" d="m182.85,108.05s0,0,.01,0c0,0,0,0-.01,0Z"/>
      <path class="cls-23" d="m182.77,108.07s.01,0,.02,0c0,0-.01,0-.02,0Z"/>
      <path class="cls-23" d="m178.56,111.98l.65-.65-.65-1.37h.43l.72-.87.93-.36v-1.72l.55.35-1.01-.65s-.36-.58-.4-.76c-.04-.18-1.52-.14-1.52-.14l-.18-.61,1.55-1.08.47-.69v-.94l-.83-.43-.18-.29.94-1.66-.22-.22-.79.54-.18-.36-.4-.76h-.36l-1.12.32-.73.48c-.02.18-.03.3-.03.3l-.43.43.25,2.98-.63.6-1.19,1.14s.22,1.39.43,1.45c.22.06.97.28.97.28,0,0-.85.7-.37.87.48.16,1.72.97,1.72.97l.68,2.94c.31-.13.91-.09.91-.09Z"/>
    </g>
    <g>
      <path class="cls-23" d="m178.41,111.97s0,0,0,0c0,0,0,0,0,0Z"/>
      <path class="cls-23" d="m178.5,111.98s0,0,0,0c0,0,0,0,0,0Z"/>
      <polygon class="cls-23" points="178.97 111.58 178.56 111.98 178.97 111.58 178.97 111.58"/>
      <path class="cls-23" d="m180.15,123.74h-1.11c-.39,0-.62-.68-.62-.68,0,0,0-.84-.07-1.27-.07-.43-.58-1.01-.87-1.49-.29-.48.94-.51.94-.51,0,0-.51-1.1-.51-1.68s.51-.87.51-.87l-.14-1.84-.79-1.48v-1.66c0-.09.07-.15.17-.2h0l-.68-2.94s-1.24-.81-1.72-.97c-.48-.16.37-.87.37-.87,0,0-.76-.22-.97-.28-.22-.06-.43-1.45-.43-1.45l1.19-1.14.63-.6-.25-2.98.43-.43s.01-.12.03-.3l.73-.48-1.05.69-1.15.07-.51-.54s-.94.4-1.12.29-.61-.29-.61-.29l-.43.36-.65.43s-.97-.04-1.15-.07c-.18-.04-.54-.36-.54-.36h-1.15c-.29,0-.97.18-.97.18h-.51l-.76.51h-.61l-.61.22h-1.95l-.9.54s-.58.69-.72.72c-.14.04-.47-.14-.47-.14l-1.3.36-.76.87-1.15.22-.29-.07.81.54v3.14l1.24.78-.43.95h-2.6l-.32.94h-1.46v.9l.6.27-.32.27s-.87-.32-.92,0c-.05.32-.76.92-.76.92h-.81v.54l-1.19.32h-1.19l-.27.65h-1.03s-.11.54-.27.54-2.22,1.19-2.22,1.19v2.81l16.4,11.36s-.16.65,0,.76c.16.11.81.43.81.43,0,0-.27.38,0,.38s.92-.16,1.03,0c.11.16-.97.49,0,.54.97.05,1.79,0,1.79,0v1.05l-.38.69.38.38,4.65-1.06,3.08-2.72,7.45-4.92-.36-1.52h-1.15Z"/>
      <path class="cls-23" d="m178.56,111.98s0,0,0,0c0,0,0,0,0,0Z"/>
      <path class="cls-23" d="m178,111.99s0,0,0,0c0,0,0,0,0,0Z"/>
      <path class="cls-23" d="m177.71,112.05s0,0,0,0c0,0,0,0,0,0Z"/>
      <path class="cls-23" d="m178.29,111.97s0,0,0,0c0,0,0,0,0,0Z"/>
      <path class="cls-23" d="m177.85,112.01s0,0,0,0c0,0,0,0,0,0Z"/>
      <path class="cls-23" d="m178.15,111.98s0,0,0,0c0,0,0,0,0,0Z"/>
    </g>
    <path class="cls-23" d="m146.45,115.57s2.06-1.19,2.22-1.19.27-.54.27-.54h1.03l.27-.65h1.19l1.19-.32v-.54h.81s.7-.6.76-.92c.05-.32.92,0,.92,0l.32-.27-.6-.27v-.9h1.46l.32-.94h2.6l.43-.95-1.24-.78v-3.14l-.81-.54.29.07-1.33-.32-.54.11-.43-.11-1.05.18-1.01-.18-.47-1.12h-1.08l-1.98,3.72-.65.4-1.37.47-2.2,1.59.04.65-.76,1.37-.47,1.33.36.51.07.58-1.33,1.95-1.19.47-1.08,1.26-2.6.72-.11.22h7.76v-1.9Z"/>
    <path class="cls-23" d="m137.98,118.87l-.58.79-1.08.58-.61,1.01-.25,1.08-.04.69s-.97.9-1.05,1.01c-.07.11-.58.61-.58.61l-1.05,2.2-.65.47-.94,1.77.12.29h6.79v-2.92l1.08-.61,1.41-.58v-4.44h5.9v-3.35h-7.76l-.72,1.4Z"/>
    <path class="cls-23" d="m149.81,122.66h2.81l-6.17-4.28v2.44h-5.9v4.44l-1.41.58-1.08.61v2.92h-6.79l.42,1.01.36.22.58.47v1.19l-.43.47v.32l.32.54.18,1.91s-.54,2.09-.58,2.24c-.04.14-.51,1.08-.51,1.19,0,.03,0,.11,0,.21l.38-.19.32-.7h1.35l1.14-.27h.65l1.08,1.14h1.3s1.68,2.92,2,2.92.81-.27.81-.49v-1.54h.54l.32,1.11,1.73-.65h7.9l.65-1.73-.81-.32-1.19-15.75Z"/>
    <g>
      <path class="cls-23" d="m139.85,142.03c-.32,0-2-2.92-2-2.92h-1.3l-1.08-1.14h-.65l-1.14.27h-1.35l-.32.7-.38.19c-.01.31-.03.84-.03.84l-1.19,1.59,1.41,2.24-.32.83-.14,1.59h.25l.05.11.26-.18h1.62l.54-.81,3.03.32s.49.38.76.46c.27.08,1.89.24,1.89.24l1.24-.24v-1.81l-.81-.49-.32-1.79Z"/>
      <path class="cls-23" d="m132.2,137.48c.04-.16.1-.37.15-.6-.06.23-.11.44-.15.6Z"/>
      <path class="cls-23" d="m131.62,139.04s0-.04,0-.06c0,.02,0,.04,0,.06Z"/>
      <path class="cls-23" d="m132.17,137.6s0,0,0-.01c0,0,0,0,0,.01Z"/>
      <path class="cls-23" d="m132.18,137.54s0-.04.01-.06c0,.02,0,.04-.01.06Z"/>
      <path class="cls-23" d="m132.36,136.87c.06-.22.12-.46.17-.67-.05.21-.12.45-.17.67Z"/>
      <path class="cls-23" d="m132.15,137.67s0,0,0-.01c0,0,0,.01,0,.01Z"/>
      <path class="cls-23" d="m132.14,137.71s0,0,0,0c0,0,0,0,0,0Z"/>
    </g>
    <path class="cls-23" d="m247.65,191.82l-.32.43-.54.32v.76s.6.54.43.7c-.16.16-.11.49-.43.6-.32.11-1.08.54-1.08.54l-.38-.43-.22.43v.38l-.43,1.14-.49,1.41-.81.38s-.49-.32-.81,0c-.32.32-.97.81-.97.81h-1.03s-.54-.05-.7,0c-.16.05-1.14.43-1.14.43v.87l-.65,1.79v1.79l.54,1.08-.22,1.03v.49l-1.19,2.6h-.65v.76s-.43.54-.43.81v.97l.54,1.08.27.49s.11.32-.16.43c-.27.11-.16.65-.16.65l.11.76c.43.49.65.92.65.92l.38.49s.76-.16.76,0,.43.49.43.49h.7l.87-.49,1.38-.22.51-.32,1.14-2.06.7-3.14,1.19-3.08,2.22-5.3-.43-1.35.87-.81v-1.08s.11-.6,0-.81c-.11-.22.05-.38.05-.38l.38.38.43.7v-.32l.49-.81-.27-.6s-.16-2.6-.22-2.81c-.05-.22-.49-1.46-.49-1.46l-.54-1.41h-.27Z"/>
    <g>
      <path class="cls-23" d="m231.26,175.86s.02-.02.03-.03c0,.01-.02.02-.03.03Z"/>
      <path class="cls-23" d="m231.3,175.81s.02-.02.03-.04c-.01.01-.02.02-.03.04Z"/>
      <path class="cls-23" d="m231.22,175.92s.01-.02.02-.03c0,0-.01.02-.02.03Z"/>
      <path class="cls-23" d="m231.35,175.76s.03-.03.04-.04h0s-.03.03-.04.04Z"/>
      <path class="cls-23" d="m231.18,175.97s.01-.02.02-.03c0,0-.01.02-.02.03Z"/>
      <path class="cls-23" d="m230.77,187.49s-.14-.97-.14-1.12-.65-1.55-.65-1.55c0,0,.11-.18.32-.43.22-.25-.22-.9-.22-.9l.43-.9s-.29-.54-.83-1.05c-.54-.51-.25-.94-.14-1.55.11-.61.61-1.77.61-1.77l.69-1.26-.56,1.03c-.91-.66-2.77-2.02-2.98-2.19-.27-.22-.05-.92-.05-.92l-6.12-3.52-3.3.04-1.89-.25-1.21.13v.34l.72.57-.05,1.55-.67.22v.65h.56l.05.76-1.79,2.62.43,1.33v1.52l-.43.38,1.17.76h.34s1.62,4,1.79,4.11c.16.11,1.79,1.41,1.79,1.41h1.46l1.03.22s.87,2.44,1.08,2.65.7.65.7.65c0,0,.81-.05.97,0,.16.05.81.32,1.08.32h1.84l.92-.38,1.05-.27,1.5.05,1.82-1.59s-1.15-.72-1.3-.79c-.14-.07-.04-.87-.04-.87Z"/>
      <path class="cls-23" d="m231.13,176.08s0-.01,0-.02c0,0,0,.01,0,.02Z"/>
      <path class="cls-23" d="m231.15,176.03s0-.02.01-.02c0,0,0,.02-.01.02Z"/>
    </g>
    <path class="cls-23" d="m223.08,166.33l-.16-1.14-.05-.81-1.24-.92.16-1.19-.65-.5-1.01.43-.88.14-.85.39h-1.15l-.43-.32-.94.32-.51.12-.43-.12.36.91-.36,1.01.36.49-.56,1.41-1.5,1.52-.49,2.86-.32.83,1.14.45h.43l.74-.91,1.21-.13,1.89.25,3.3-.04v-.97h1.24c.22,0,.16-.39.16-.39l-1.41-.69v-1.03l1.95-1.95Z"/>
    <g>
      <path class="cls-23" d="m230.74,188.24s0,.02,0,.02c0,0,0-.01,0-.02Z"/>
      <path class="cls-23" d="m230.76,188.29s0,.01,0,.02c0,0,0-.01,0-.02Z"/>
      <path class="cls-23" d="m230.73,187.99c0,.06,0,.11,0,.16,0-.05,0-.1,0-.16Z"/>
      <path class="cls-23" d="m230.74,188.18s0,.02,0,.03c0,0,0-.02,0-.03Z"/>
      <path class="cls-23" d="m230.78,188.34s0,0,0-.01c0,0,0,0,0,.01Z"/>
      <path class="cls-23" d="m232.14,196.47c-.07-.11-.04-.9-.04-1.12s-.11-3.93-.11-3.93l.07-1.15.04-1.12-1.82,1.59-1.5-.05-1.05.27-.92.38h-1.84c-.27,0-.92-.27-1.08-.32-.16-.05-.97,0-.97,0l-.38.81-.65.43.27.97.24.49v.97l1.38,1.52v2.54s.05.38,0,.54c-.05.16-1.41.7-1.41.7v.65l.45.7-.29.43-.65-.22s-.87-.81-.76-.97c.11-.16,0-1.62,0-1.62,0,0,.33-.92.33-1.08s-.32-1.19-.32-1.19l-.32-.3-.92.3-.87-.97-.43-.05-4.71,1.68v.87l.38.27-.38.7,1.46.38.87.38.87.32.38.05.81.22.11.87.05,2-.65,1.11.05,1,.6.6-.05.81-1.08.87v1.62l-1.84,2.11.43.87-.38,1.46.54.32v3.57s.22.11.27.32c.05.22-.05,1.73.16,1.79.09.02.56.12,1.09.24l.17-.89-.25-1.44.43-.72,1.05-.43,2.74-1.19.4-.69v-.4l.43-1.8s-.32-.43-.32-.54-.04-.97-.04-1.19-.14-1.41-.18-1.52c-.04-.11-.4-.76-.4-.76l-.29-.76.22-.9v-.4l1.15-1.19s1.33-.65,1.44-.76c.11-.11.72-.76.72-.76l.22-.47.54-.61s.69-.72.94-1.01c.25-.29,1.44-.29,1.44-.29l1.98-.83,1.48-1.26.51-1.52s.36-.79.36-.97-.11-.22-.18-.32Z"/>
    </g>
    <path class="cls-23" d="m219.89,196.69l.92-.3.32.3s.32,1.03.32,1.19-.33,1.08-.33,1.08c0,0,.12,1.46,0,1.62-.11.16.76.97.76.97l.65.22.29-.43-.45-.7v-.65s1.35-.54,1.41-.7c.05-.16,0-.54,0-.54v-2.54l-1.38-1.52v-.97l-.24-.49-.27-.97.65-.43.38-.81s-.49-.43-.7-.65-1.08-2.65-1.08-2.65l-1.03-.22h-1.46l.81.51v.69l.54.47v.29h-.97l.05.54.49.43s-.38.27-.24.49c.14.22,0,.92,0,.92l.68.43-.27.43h-1.08l-.05,2.98.43.05.87.97Z"/>
    <path class="cls-23" d="m216.48,219.85c-.22-.05-.11-1.57-.16-1.79-.05-.22-.27-.32-.27-.32v-3.57l-.54-.32.38-1.46-.43-.87-1.57-.54-1.62-.43-.65.49v.49h-.94l-.72.32-.72,1.15-1.01.51h-.58v1.23l-1.3,1.08h-.43l-.65,1.39-.51,1.06h-1.52l-.72-.43-1.15-1.15h-.43l-.58.52v1.06s-.94.65-1.15.79c-.22.14-.65,1.03-.65,1.03,0,0-1.23.09-1.44,0-.22-.09-.51-.31-.51-.31v-1.59s.43-1.3,0-1.52c-.43-.22-.97-.72-.97-.72v6.78l-1.34.36s-.94.51-1.15.51h-1.3l-.65-.36s-.22-.79-.43-.94c-.22-.14-.58-.29-.58-.29l-.74.93c.26.32.62.75.84,1.02.4.47.14.61.51,2.13.36,1.52.79,1.44,1.44,2.71.65,1.26-.25,1.7-.25,1.7l-.36.43,1.7,3.39,1.48.43s.4-.14.51-.22c.11-.07,1.33-.79,1.33-.79h1.52l.9-.43,1.77.18.29-.43,1.91.18h1.08s.22-.29.22-.4.51-.18.69-.18.4,0,1.37-.32c.97-.32,3.61-2.16,3.61-2.16,0,0,1.48-1.52,1.55-1.62.07-.11,1.08-.69,1.23-.83.14-.14.47-.83.54-1.01.07-.18,2.16-2.92,2.16-2.92l1.05-.61.36-.54v-.97c0-.14.61-1.15.61-1.15l.08-.41c-.53-.11-1-.22-1.09-.24Z"/>
    <g>
      <path class="cls-23" d="m190.29,223.96s-.06-.07-.09-.1c.03.04.06.07.09.1Z"/>
      <path class="cls-23" d="m189.67,223.22s.06.07.08.1c-.03-.03-.06-.07-.08-.1Z"/>
      <path class="cls-23" d="m189.45,222.95c.06.08.13.16.21.25-.07-.09-.14-.17-.21-.25Z"/>
      <path class="cls-23" d="m189.79,223.36s.05.06.08.09c-.03-.03-.05-.06-.08-.09Z"/>
      <path class="cls-23" d="m190.18,222.02s.36.14.58.29c.22.14.43.94.43.94l.65.36h1.3c.22,0,1.15-.51,1.15-.51l1.34-.36v-12.19h1.84v-6.78l4.47-.51.43.51,1.73-.72.58-.29h.72l-.51-.65-2.16-.32-4.91,1.26-1.01-.43h-3.25l-.87-.83h-8.15v-.61h-.87l-1.01.61-1.19-.22.29,1.77.22.83,1.15,1.05v1.01l1.05,1.84,2.09,3.61-.32,2.56.43,1.41.32,1.37s.43,1.84.43,1.95.61,1.77.61,1.77l1.33,1.8s.15.18.35.42l.74-.93Z"/>
      <path class="cls-23" d="m190.79,226.09s.02.09.03.13c-.01-.04-.02-.08-.03-.13Z"/>
      <path class="cls-23" d="m189.9,223.5s.05.06.07.09c-.02-.03-.05-.06-.07-.09Z"/>
      <path class="cls-23" d="m190.11,223.75s.05.05.07.08c-.02-.03-.04-.05-.07-.08Z"/>
      <path class="cls-23" d="m190.01,223.63s.05.06.07.08c-.02-.03-.05-.05-.07-.08Z"/>
      <path class="cls-23" d="m190.87,226.39s.01.05.02.07c0-.02-.01-.04-.02-.07Z"/>
      <path class="cls-23" d="m190.94,226.61s.01.04.02.06c0-.02-.01-.04-.02-.06Z"/>
      <path class="cls-23" d="m190.9,226.5s.01.04.02.06c0-.02-.01-.04-.02-.06Z"/>
      <path class="cls-23" d="m190.97,226.71s.02.05.03.07c0-.02-.02-.04-.03-.07Z"/>
      <path class="cls-23" d="m190.84,226.26s.01.05.02.08c0-.03-.01-.05-.02-.08Z"/>
      <path class="cls-23" d="m191.02,226.83s.01.03.02.05c0-.01-.01-.03-.02-.05Z"/>
      <path class="cls-23" d="m191.09,227.01s0,.02.01.03c0,0,0-.02-.01-.03Z"/>
      <path class="cls-23" d="m191.13,227.08s0,.02.01.02c0,0,0-.02-.01-.02Z"/>
      <path class="cls-23" d="m191.06,226.92s.01.02.02.04c0-.01-.01-.02-.02-.04Z"/>
      <path class="cls-23" d="m191.17,227.15s0,0,0,.01c0,0,0,0,0-.01Z"/>
    </g>
    <path class="cls-23" d="m210.89,209.82l-1.52-.65v-.72l-.36-1.08h-.58v-.65l-1.52-.65v-1.45l-1.15-.64-.36-1.23h-.72l-.58.29-1.73.72-.43-.51-4.47.51v6.78h-1.84v5.41s.54.51.97.72c.43.22,0,1.52,0,1.52v1.59s.29.22.51.31c.22.09,1.44,0,1.44,0,0,0,.43-.89.65-1.03.22-.14,1.15-.79,1.15-.79v-1.06l.58-.52h.43l1.15,1.15.72.43h1.52l.51-1.06.65-1.39h.43l1.3-1.08v-1.23h.58l1.01-.51.72-1.15.72-.32h.94v-.49l.65-.49-1.37-.72Z"/>
    <path class="cls-23" d="m217.78,204.51l.65-1.11-.05-2-.11-.87-.81-.22-.38-.05-.87-.32-.87-.38-1.46-.38.38-.7-2,.28-.93.35v.82l-1.23.35-1.64,1.5s-.23.73-.53.73-2.53.25-2.53.25l.36,1.23,1.15.64v1.45l1.52.65v.65h.58l.36,1.08v.72l1.52.65,1.37.72,1.62.43,1.57.54,1.84-2.11v-1.62l1.08-.87.05-.81-.6-.6-.05-1Z"/>
    <g>
      <polygon class="cls-23" points="131.47 144.77 131.34 146.22 131.47 144.77 131.47 144.77"/>
      <polygon class="cls-23" points="134.06 145.33 133.52 146.15 131.9 146.15 131.64 146.33 131.77 146.61 132.78 147.23 133.11 146.94 133.65 146.94 133.83 148.02 134.08 148.74 134.25 148.95 134.55 147.98 135.69 147.44 136.12 147.44 136.12 147.07 136.12 146.36 136.55 146.36 136.55 145.6 136.55 145.6 134.06 145.33"/>
    </g>
    <path class="cls-23" d="m147,152.21l-.54-.32v-1.68l-.43-.22v-1.04h-.92l.92-1.02v-.32h-1.19c-.32,0,0-.98,0-.98v-.51h-.65l-.27.51h-1.68v.51l-.54-.24-.7.24-.54-.51.54-.51-1.24.24s-1.62-.16-1.89-.24c-.27-.08-.76-.46-.76-.46l-.67-.07h.13v.78h-.43v1.08h-.42l-1.15.54-.3.96.8.98s.69.61.83.72c.14.11,1.01.87,1.01.87,0,0,.19.42.34.7l.88-1.3.69-.39h1.05s.97.16,1.14.39c.16.23.7,0,.7,0,0,0,.11,1.34.26,1.56.15.22.07.81,0,1.03-.07.22.5,0,.5,0h.92c.22,0,.35.43.35.43v1.79h1.33l.32-.65h.6l.49-.76-.6-.76.6-.27.54.27v-.43l-.54-.6.54-.32Z"/>
    <g>
      <polygon class="cls-23" points="139.37 146.32 139.37 146.32 139.37 146.32 139.37 146.32"/>
      <path class="cls-23" d="m139.68,146.36s0,0,0,0c0,0,0,0,0,0Z"/>
      <path class="cls-23" d="m139.44,146.33s0,0,.01,0c0,0,0,0-.01,0Z"/>
      <path class="cls-23" d="m166.48,133.97l-.38-.38.38-.69v-1.05s-.81.05-1.79,0c-.97-.05.11-.38,0-.54-.11-.16-.76,0-1.03,0s0-.38,0-.38c0,0-.65-.32-.81-.43-.16-.11,0-.76,0-.76l-10.23-7.09h-2.81l1.19,15.75.81.32-.65,1.73h-7.9l-1.73.65-.32-1.11h-.54v1.54c0,.22-.49.49-.81.49l.32,1.79.81.49v1.81l-.54.51.54.51.7-.24.54.24v-.51h1.68l.27-.51h.65v.51s-.32.98,0,.98h1.19v.32l-.92,1.02h.92v1.04l.43.22.54-.54,1.19.43.65-.27v-.32s.27-.11.34-.11.58.05.58.05v.65h.27s.7-.49.76-.65c.05-.16,0-.81,0-.81l.38-.49-.38-.65.43-.6h.87c.22,0,.76-.54.76-.54l-.22-.78.43-.71v-.46l.43-.49s.38.6.49.84c.11.25.6,0,.6,0l.6-.95v-.49l.43-.68h.54l.32-.02s.49.05.81,0c.32-.05,0-.46,0-.46v-.57h1.62l.38-.7s1.46.27,1.68.32c.22.05,1.19,0,1.46,0s.54-.6.54-.6h2.16s.7-.21.87-.16.27-.05.43,0c.16.05.54,0,.54,0l.54-1.02.6-1.46v-2.81l.26-1.62-1.88.43Z"/>
      <path class="cls-23" d="m139.74,146.36s0,0,0,0c0,0,0,0,0,0Z"/>
    </g>
    <g>
      <path class="cls-23" d="m136.96,151.67c.06.13.16.33.24.49-.09-.16-.18-.36-.24-.49Z"/>
      <path class="cls-23" d="m136.38,151.07s-.03-.03-.05-.04c.02.01.03.03.05.04Z"/>
      <path class="cls-23" d="m136.89,151.52s0,0,0,.02c0-.01,0-.02,0-.02Z"/>
      <path class="cls-23" d="m136.89,151.52s-.25-.22-.51-.44c.25.22.51.44.51.44Z"/>
      <path class="cls-23" d="m141.95,153.5c.07-.22.15-.81,0-1.03-.15-.22-.26-1.56-.26-1.56,0,0-.54.23-.7,0-.16-.23-1.14-.39-1.14-.39h-1.05l-.69.39-.88,1.3c.05.09.09.16.13.2.14.18,0,1.15,0,1.3s.72.72.72.72l.94,1.3.65.29.69.46.26-.44,1.02-.96.31-.28.28-.6h.54v-.7h-.32s-.57.22-.5,0Z"/>
      <path class="cls-23" d="m137.24,152.22s-.02-.03-.03-.05c0,.02.02.03.03.05Z"/>
      <path class="cls-23" d="m136.92,151.57s.03.06.05.1c-.02-.04-.03-.07-.05-.1Z"/>
      <path class="cls-23" d="m136.9,151.54s0,.01,0,.02c0,0,0-.01,0-.02Z"/>
    </g>
    <g>
      <path class="cls-23" d="m187.91,129.69l-.49-.43-.36-3.02-1.79.42-.36-.51-3.25-.9-7.45,4.92-3.08,2.72-2.77.63-.26,1.62v2.81l-.6,1.46-.54,1.02s-.38.05-.54,0c-.16-.05-.27.05-.43,0s-.87.16-.87.16h-2.16s-.27.6-.54.6c-.21,0-.81.03-1.19.02v1.22l.32.43s-.32.38,0,.54c.32.16.92.49.92.49v.84l.43.72h1.15l.69.38s-.94.11-.69.49c.25.38,1.06.78,1.06.78l.49-.78,1.03,1.03v.43h.7l-.43-2.24.81-.25v-1.41l2.44-.43,1.19.22h.7l.97,1.06h.49l1.14-.55h.54l1.14,1.11h1.11l1.65-1.11h1.89l.92.55h1.14l.65-.55.84-.12c-.14-.34-.24-.61-.24-.61v-1.24h.7v-1.37l.97-1.44,1.85-1.62.32-5.29.43-1.48-.65-.6v-.76Z"/>
      <polygon class="cls-23" points="188.81 125.83 193.28 128.1 193.28 128.1 188.81 125.83"/>
    </g>
    <path class="cls-23" d="m187.37,160.81s-.92-.27-.92-.49.16-1.3.16-1.46-.6-.76-.43-.97,1.84-2.81,1.84-2.81l-.7-2-.89-.76-1.06-1.14.27-.49h2l-.7-4.06-.38-.14v1.33l-.81.49-.65.32-.81,2.89s-.7.5-.7.7.32.85,0,.96c-.32.11-.54.28-.6.33-.05.05,0,.48,0,.48l-.02.27-1.06.81v.65l-.23.49-1.01,1.24h-.27l-.6-.54-.32-.42h-.81l-1.68.97s-.87.81-.76,1.19c.11.38.32.6.22.81-.06.11-.38.75-.68,1.32l.57.16.29.61.22.25h.58v.36l.97,1.33-.51,1.33.17.47s8.04-.13,8.18,0c.13.13,1.14.43,1.14.43h.7l.87.38v-2.06l-1.24-1.89-.32-1.35Z"/>
    <g>
      <path class="cls-23" d="m141.99,153.33s0-.01,0-.02c0,0,0,.01,0,.02Z"/>
      <path class="cls-23" d="m141.98,153.4s0-.01,0-.02c0,0,0,.01,0,.02Z"/>
      <path class="cls-23" d="m142,153.25s0,0,0-.01c0,0,0,0,0,.01Z"/>
      <path class="cls-23" d="m141.96,153.46s0-.01,0-.02c0,0,0,.01,0,.02Z"/>
      <path class="cls-23" d="m147,158.38s-.22-.18-.47-.4c-.25-.22-.18-.32-.18-.32h-.51s-.36-.14-.47-.29c-.11-.14.23-.65.23-.65l.23-.41v-.78l-.47-.45-.32.65h-1.33v-1.79s-.14-.43-.35-.43h-.6v.7h-.54l-.28.6-.31.28-1.02.96-.26.44-.69-.46.76.51s2.09,1.44,2.27,1.52c.18.07,1.91,1.73,1.91,1.73l1.73,1.33.47.14.18-1.01.32-.72.18-.72-.51-.43Z"/>
    </g>
    <path class="cls-23" d="m144.61,159.78s0,0,0,0c0,0,0,0,0,0Z"/>
    <path class="cls-23" d="m144.61,159.78s-.11-.11-.25-.23c.13.12.22.21.25.23Z"/>
    <path class="cls-23" d="m144.36,159.54c-.09-.09-.2-.19-.32-.31.12.11.23.22.32.31Z"/>
    <path class="cls-23" d="m155.19,156.68l.04-.38s.07-.24.14-.58c.07-.34.4-.96.4-.96l.61-.65v-.4l-.18-.47v-1.33s-.22-.14-.32-.25c-.11-.1-.04-.29-.14-.55-.11-.25,0,0-.43-.47-.43-.47-.51,0-.51,0,0,0-.51,0-.68,0s-.18,0-.18,0l-.94.43-.79-.43-.4-.83-1.01-.38c-.05.16-.76.65-.76.65h-.27v-.65s-.51-.05-.58-.05-.34.11-.34.11v.32l-.65.27-1.19-.43-.54.54v1.68l.54.32-.54.32.54.6v.43l-.54-.27-.6.27.6.76-.49.76h-.6l.47.45v.78l-.23.41s-.34.51-.23.65c.11.14.47.29.47.29h.51s-.07.11.18.32c.25.22.47.4.47.4l.51.43-.18.72-.32.72-.18,1.01.25.07,3.54-1.55,3.75-.14s1.25.26,1.58.32l.19-.82-.32-.25-.32-.32v-.47l-.29-1.12c-.29-1.12,0-.29,0-.29Z"/>
    <path class="cls-23" d="m162.28,141.22s.01,0,.02,0c0,0-.01,0-.02,0Z"/>
    <path class="cls-23" d="m162.35,141.22s.01,0,.02,0c0,0-.01,0-.02,0Z"/>
    <path class="cls-23" d="m161.71,141.24s0,0,.01,0c0,0,0,0-.01,0Z"/>
    <path class="cls-23" d="m149.76,149.45s0,0,0,0c0,0,0,0,0,0Z"/>
    <path class="cls-23" d="m164.06,146.36c-.25-.38.69-.49.69-.49l-.69-.38h-1.15l-.43-.72v-.84s-.6-.32-.92-.49c-.32-.16,0-.54,0-.54l-.32-.43v-1.22c-.12,0-.22,0-.27-.02-.22-.05-1.68-.32-1.68-.32l-.38.7h-1.62v.57s.32.41,0,.46c-.32.05-.81,0-.81,0l-.32.02h-.54l-.43.68v.49l-.6.95s-.49.25-.6,0c-.11-.25-.49-.84-.49-.84l-.43.49v.46l-.43.71.22.78s-.54.54-.76.54h-.87l-.43.6.38.65-.38.49s.05.65,0,.81l1.01.38.4.83.79.43.94-.43s0,0,.18,0,.68,0,.68,0c0,0,.07-.47.51,0,.43.47.32.22.43.47.03.06.04.12.05.18h0v-2.09l.16-.26h3.72s.43-.78.54-.78.22.22.47.29c.25.07,1.3.22,1.3.22l.87-.29s-.22-.58.14-.56c.36.02,1.26,0,1.26,0l.81-.72c-.21-.11-.78-.43-.99-.74Z"/>
    <path class="cls-23" d="m149.71,149.44h0s.02,0,.03,0c0,0-.02,0-.03,0Z"/>
    <path class="cls-23" d="m161.28,141.24s.02,0,.03,0c-.01,0-.02,0-.03,0Z"/>
    <path class="cls-23" d="m161.4,141.24s-.02,0-.03,0c0,0,.02,0,.03,0Z"/>
    <path class="cls-23" d="m161.62,141.24s.01,0,.02,0c0,0-.01,0-.02,0Z"/>
    <g>
      <path class="cls-23" d="m154.87,150.41s.06.01.1.03c-.04-.02-.07-.03-.1-.03Z"/>
      <path class="cls-23" d="m155.54,150.95s.01.01.02.02c0,0-.01-.02-.02-.02Z"/>
      <path class="cls-23" d="m155.57,151.01s.02.04.03.07c-.01-.03-.02-.06-.03-.07Z"/>
      <path class="cls-23" d="m155.61,151.09s.02.06.03.09c0-.03-.02-.06-.03-.09Z"/>
      <path class="cls-23" d="m153.82,150.62s0,0,.05,0c-.04,0-.05,0-.05,0h0Z"/>
      <path class="cls-23" d="m161.62,156.9c-.49-.65-.16-.94-.22-1.17-.06-.23,0-1.57,0-1.57v-.7l-.09-.46.09-.43-.12-.9-.33-.15.28-.69v-.9l-.56-.36v-1.11c-.07-.01-.14-.03-.18-.04-.25-.07-.36-.29-.46-.29s-.53.78-.53.78h-3.67l-.16.26v2.08h0c.03.16.01.29.09.37.11.1.32.25.32.25v1.33l.18.47v.4l-.61.65s-.32.61-.39.95c-.07.34-.14.58-.14.58l-.04.38s-.29-.83,0,.29l.29,1.11v.47l.32.32.32.25-.18.82c-.33-.05-1.56-.32-1.56-.32h-.21s.03.06.04.08h.28s1.37.28,1.62.31c.25.04.9.54.9.54,0,0,2.02-.87,2.27-.97.25-.11,2.38-1.05,2.38-1.05l.76.07.25-.25.28-.33c-.47-.36-.97-.77-1.21-1.08Z"/>
      <polygon class="cls-23" points="152.15 150.64 152.9 151.04 152.15 150.64 152.15 150.64"/>
      <path class="cls-23" d="m154.41,150.62c.13,0,.24,0,.27,0-.03,0-.14,0-.27,0Z"/>
    </g>
    <path class="cls-23" d="m161.53,158.48s0,0-.01,0c0,0,.01,0,.01,0Z"/>
    <polygon class="cls-23" points="159.78 148.43 159.78 148.43 159.78 148.43 159.78 148.43"/>
    <path class="cls-23" d="m161.46,158.52s-.05.02-.08.03c.03-.01.05-.02.08-.03Z"/>
    <path class="cls-23" d="m163.59,152.42l-.4-.26v-1.64l-.92-.32v-.49l.22-1.22h0l-.53.18s-1.05-.14-1.3-.22c-.25-.07-.36-.29-.47-.29-.01,0-.03.01-.06.04.08.07.18.18.35.23.04.01.1.03.18.04v1.11l.56.36v.9l-.28.69.33.15.12.9-.09.43.09.46v.7s-.06,1.33,0,1.57c.06.23-.27.52.22,1.17.23.3.74.72,1.21,1.08l-.28.33.61-.72.77-.13-.34-.81v-4.22Z"/>
    <g>
      <path class="cls-23" d="m164.53,146.79s.04.03.06.04c-.02-.01-.04-.03-.06-.04Z"/>
      <path class="cls-23" d="m164.61,146.84s.04.03.06.04c-.02-.01-.04-.03-.06-.04Z"/>
      <path class="cls-23" d="m164.44,146.72s.04.03.06.04c-.02-.01-.04-.03-.06-.04Z"/>
      <path class="cls-23" d="m164.77,146.94s-.05-.03-.08-.05c.03.02.05.03.08.05Z"/>
      <path class="cls-23" d="m165,147.08s.03.02.05.03c-.01,0-.03-.02-.05-.03Z"/>
      <path class="cls-23" d="m164.79,146.96s.04.02.06.03c-.02-.01-.04-.02-.06-.03Z"/>
      <path class="cls-23" d="m164.06,146.36s.03.04.05.07c-.02-.02-.03-.04-.05-.07Z"/>
      <path class="cls-23" d="m164.94,147.04s.03.01.04.02c-.01,0-.03-.01-.04-.02Z"/>
      <path class="cls-23" d="m164.87,147s.03.02.04.02c-.01,0-.03-.02-.04-.02Z"/>
      <path class="cls-23" d="m164.34,146.64s.05.04.08.06c-.03-.02-.05-.04-.08-.06Z"/>
      <path class="cls-23" d="m166.96,149.87l.32-.42-.15-.67-.49-.35v-1.04l-1.03-1.03-.49.78s-.03-.01-.08-.04l-.81.72s-.9.02-1.26,0c-.36-.02-.14.56-.14.56l-.87.29.53-.18-.22,1.22v.49l.92.32v1.64l.4.26v4.22l.34.81.31-.05,1.05.04h.23s-.05-1.71-.05-1.71l-.18-.64v-.22l.26-2.65h.57l.19-.31v-.74h.66l.32-.52-.32-.21v-.58Z"/>
      <path class="cls-23" d="m161.7,148.63s-.04,0-.06,0c.02,0,.04,0,.06,0Z"/>
      <path class="cls-23" d="m161.78,148.64s-.03,0-.04,0c.01,0,.03,0,.04,0Z"/>
      <path class="cls-23" d="m161.86,148.66s-.03,0-.05,0c.02,0,.03,0,.05,0Z"/>
      <path class="cls-23" d="m164.26,146.58s.04.04.06.05c-.02-.02-.04-.03-.06-.05Z"/>
      <path class="cls-23" d="m161.92,148.66s-.02,0-.04,0c.01,0,.03,0,.04,0Z"/>
      <path class="cls-23" d="m164.13,146.45s.03.03.04.05c-.01-.02-.03-.03-.04-.05Z"/>
      <path class="cls-23" d="m164.24,146.56s-.03-.03-.05-.04c.01.01.03.03.05.04Z"/>
      <path class="cls-23" d="m161.97,148.67s-.02,0-.04,0c.02,0,.04,0,.04,0Z"/>
      <polygon class="cls-23" points="161.62 148.62 161.62 148.62 161.62 148.62 161.62 148.62"/>
    </g>
    <g>
      <path class="cls-23" d="m184.31,143.57s0,0,0,0c0,0,0,0,0,0Z"/>
      <path class="cls-23" d="m184.29,143.52s0,0,0,0c0,0,0,0,0,0Z"/>
      <path class="cls-23" d="m185.2,145.57c-.07.01-.43-.85-.68-1.47,0,0,0,0,0,0l-.84.12-.65.55h-1.14l-.92-.55h-1.89l-1.65,1.11h-1.11l-1.14-1.11h-.54l-1.14.55h-.49l-.97-1.06h-.7l-1.19-.22-2.44.43v1.41l-.81.25.43,2.24h-.7v.6l.49.35.15.67-.32.42v.58l.32.21-.32.52h-.66v.74l-.19.31h-.57l-.26,2.65v.22l.18.64.05,1.7,1.61-.09,1.77.32,1.26,1.77.22,1.15,1.01.79h.65l.58-.43.51-.11s1.73.11,1.84.11.72-.18.72-.18l.08.02c.3-.57.62-1.21.68-1.32.11-.22-.11-.43-.22-.81-.11-.38.76-1.19.76-1.19l1.68-.97h.81l.32.42.6.54h.27l1.01-1.24.23-.49v-.65l1.06-.81.02-.27s-.05-.43,0-.48c.05-.05.27-.22.6-.33.32-.11,0-.76,0-.96s.7-.7.7-.7l.81-2.89.65-.32.81-.49v-1.33l-.65-.24s-.6-.7-.7-.68Z"/>
      <path class="cls-23" d="m184.29,143.51s0,0,0-.01c0,0,0,0,0,.01Z"/>
      <path class="cls-23" d="m184.5,144.04s0,0,0,0c0,0,0,0,0,0Z"/>
      <path class="cls-23" d="m184.43,143.86s0,0,0,0c0,0,0,0,0,0Z"/>
      <path class="cls-23" d="m184.37,143.71s0,0,0,0c0,0,0,0,0,0Z"/>
    </g>
    <path class="cls-23" d="m207.79,158.35c-.22.05-.58-1.08-.58-1.08v-.55l-.22-.22c-.22-.22-.94-.51-.94-.51l-.87-.41-.29-.51s-.87-1.03-1.37-1.03,0-.36,0-.36l-.36-.36h-.58s-.43-.29-.65-.44c-.22-.15.36-1,.58-1.43s-.29-1.08-.29-1.08l-.87-.72v-.69l-.29-.47-.26-.37.25.35-.16.49h-1.19l-.51.65v1.03l-2.09,1.46-1.48.32h-1.5l-.22.28.65.37-.38.7-.54.7s-2,.11-2.33.11-.92.38-1.08.49c-.16.11-.43-.6-.43-.6l-.92.6h-.87s-1.68,2.6-1.84,2.81.43.81.43.97-.16,1.24-.16,1.46.92.49.92.49l.32,1.35,1.24,1.89v1.21l.7-.25.29-2.16.83-.14,1.08-.36,1.44.51.23-.25v-1.23l.24-.25.65-.83s.32-.72.54-.72h.69l.83.43.69,1.12h.69l.36.25h1.3l.72.25.65-.25.36-.97.72.11.65.14,1.01-.58s.07-.54.22-.51c.14.04.36,0,.36,0l.36.36h.69l.4-.83s.79.29.94.32c.14.04.79.43.94.47.08.02.83.02,1.44.01v-1.55s-.94-.05-1.15,0Z"/>
    <g>
      <path class="cls-23" d="m193.51,162.37v.23l-.23.25-1.44-.51-1.08.36-.83.14-.29,2.16-.7.25v.85l-.87-.38h-.7s-1-.3-1.14-.43c-.04-.04-.97-.06-2.19-.06l-.17.42v1.08l.21.29h.44l.79-.32.65.27s.12.05.19.27c.06.22.24.61.24.61v.32l-1.26.36v.97l.29.76.73.18s-.06.87,0,1.08c.06.22.24,1.26.24,1.26l-.51.51-.04.76h-.51s-.07-.18-.07-.43-.14-.43-.14-.43h-.25l-.07.32-.72.54-.51-.4-.18-.11-.29-.58h-.29l-.18.22v.43l-.29.14h-.64c-.4,0-.29-.32-.4,0l-.05.72v.51s.26.18.23.29c-.04.11,0,.43,0,.43l-.43.14h-.36l-.51.65.94,1.05v.54l.65.32s.25.29.29.4c.02.07.16.86.26,1.42l.32-.12.04-.61s.07-.83.29-.83.87-.69.87-.69l.61.43.29-.11s.32-.29.32-.43v-.14l.58-.22h.51l.24.79s-.11.22.16.11c.27-.11-.16.22.52-.36.69-.58.9-.65.9-.65l.32-.76.4-.04.58-.29s-.07-.87,0-1.05c.07-.18,0-1.91,0-1.91l.87-.86v-.33l1.05-.43s.76-.32.79-.79c.04-.47,0-1.23,0-1.23l.47-.65v-.87l.18-1.24v-1.17l.29-.54s.45-1.33.59-1.48.39-.54.39-.69c0-.06-.17-.38-.39-.74Z"/>
      <polygon class="cls-23" points="187.68 162.1 187.68 162.1 187.69 162.16 187.68 162.1"/>
    </g>
    <path class="cls-23" d="m207.79,158.35s-.02,0-.03,0c.01,0,.02,0,.03,0Z"/>
    <g>
      <path class="cls-23" d="m182.08,178.9s0,0,0-.01c0,0,0,0,0,.01Z"/>
      <path class="cls-23" d="m182.07,178.86s0,0,0,0c0,0,0,0,0,0Z"/>
      <path class="cls-23" d="m182.09,178.94s0,0,0-.01c0,0,0,0,0,.01Z"/>
      <path class="cls-23" d="m181.93,178.62s-.03-.04-.05-.06c.02.02.03.04.05.06Z"/>
      <path class="cls-23" d="m182.04,178.78s.02.03.02.05c0-.01-.01-.03-.02-.05Z"/>
      <path class="cls-23" d="m182.1,179.01s0,0,0-.01c0,0,0,0,0,.01Z"/>
      <path class="cls-23" d="m216.59,186.37h.65c-.19-.15-.33-.26-.38-.29-.16-.11-1.79-4.11-1.79-4.11h-.34l-1.17-.76.43-.38v-1.52l-.43-1.33-.65-1.61-.25-.94s-.43-.25-.43-.36v-.72l-.32-.22s-.18-.51-.07-.58c.11-.07.6-.32.6-.32,0,0-.09-.61,0-.72.09-.11,0-.77,0-.77l.32-.83.49-2.86,1.5-1.52.56-1.41-.36-.49.36-1.01-.36-.91c-.43-.12-.51-.75-.51-.75l-.43-.65-.58-.79-.65.27-.94.52s-1.15-.29-1.44-.52c-.29-.23-1.44-.84-1.44-.84v-.07c-.61,0-1.36.01-1.44-.01-.14-.04-.79-.43-.94-.47-.14-.04-.94-.32-.94-.32l-.4.83h-.69l-.36-.36s-.22.04-.36,0c-.14-.04-.22.51-.22.51l-1.01.58-.65-.14-.72-.11-.36.97-.65.25-.72-.25h-1.3l-.36-.25h-.69l-.69-1.12-.83-.43h-.69c-.22,0-.54.72-.54.72l-.65.83-.24.25v1c.22.35.39.68.39.74,0,.14-.25.54-.39.69s-.59,1.48-.59,1.48l-.29.54v1.17l-.18,1.24v.87l-.47.65s.04.76,0,1.23c-.04.47-.79.79-.79.79l-1.05.43v.33l-.87.86s.07,1.73,0,1.91c-.07.18,0,1.05,0,1.05l-.58.29-.4.04-.32.76s-.22.07-.9.65c-.69.58-.25.25-.52.36-.27.11-.16-.11-.16-.11l-.24-.79h-.51l-.58.22v.14c0,.14-.32.43-.32.43l-.29.11-.61-.43s-.65.69-.87.69-.29.83-.29.83l-.04.61-.32.12c.06.32.1.57.1.57v.24l1.05-.65h6.66v1.62c0,.22,1.08,2.11,1.08,2.11l.65.43.76-.11.83-.32.36.22,1.14-.05v-1.24l.27-.6h1.79v.6h1.82l.62.27s-.43.6-.6.87c-.16.27.6.97.6.97v1.57l.32.76.27,1.66-.38.58.22.47s1.14,0,1.35-.32c.22-.32.49,0,.49,0h1.3v.3s.06.06.13.06h.61v.83h.2l.52-.18.65-.47.29.76s.18.52.65.55c.47.03,1.37-.05,1.55.1.18.14.76.18.76.18l.25-1.08.22.41.47.49v.51s.47.07.61.18c.14.11.72.43.72.43,0,0,.36.11.47.32s.22.58.32.72c.11.14.49.65.49.65h.51s.02-.43.16-.43.54.22.54.22v.22h.43l-.18-2.35-.72-.07v.47h-.4l-.69-.54-.65-.81-.07-.67s.25-.4.25-.54v-.47l.18-.69s-.11-.94,0-.97c.11-.04.14-.32.14-.32l-.47-.54.61-.47.69-1.26,1.62-.43.54.22s-.29.43,0,.51c.29.07.97.36,1.12.43.14.07,1.05.25,1.05.25Z"/>
      <path class="cls-23" d="m182.04,178.78s-.02-.04-.04-.06c.01.02.03.04.04.06Z"/>
      <path class="cls-23" d="m181.93,178.62s.03.04.05.07c-.02-.02-.03-.04-.05-.07Z"/>
      <path class="cls-23" d="m182.12,179.09s0-.01,0-.02c0,0,0,.01,0,.02Z"/>
      <path class="cls-23" d="m182.25,179.8s0,0,0,0c0,0,0,0,0,0Z"/>
      <path class="cls-23" d="m182.27,179.92s0,0,0,0c0,0,0,0,0,0Z"/>
      <path class="cls-23" d="m183.08,181.97s0,0,0,0c0,0,0,0,0,0Z"/>
      <path class="cls-23" d="m182.2,179.57s0,0,0,0c0,0,0,0,0,0Z"/>
      <path class="cls-23" d="m182.13,179.17s0-.01,0-.02c0,0,0,.01,0,.02Z"/>
      <path class="cls-23" d="m182.15,179.26s0,0,0,0c0,0,0,0,0,0Z"/>
      <path class="cls-23" d="m182.17,179.37s0-.02,0-.02c0,0,0,.02,0,.02Z"/>
      <path class="cls-23" d="m182.18,179.46s0,0,0,0c0,0,0,0,0,0Z"/>
    </g>
    <path class="cls-23" d="m207.72,158.33s.02.01.03.02c-.01,0-.02,0-.03-.02Z"/>
    <g>
      <path class="cls-23" d="m185.96,166.98l-.65-.27-.79.32h-.44l-.21-.29v-1.08l.17-.42c.22,0,.44,0,.64,0-2.37-.01-6.63.06-6.63.06l.08.21-.9,1.73.47.29-.07.58s-.25.04-.58.14c-.32.11-.04,2.02-.07,2.16-.04.14-.61.29-.61.29l-.29.22.72.83.79,1.98,1.88,1.73.72,1.05.51-.65h.36l.43-.14s-.04-.32,0-.43c.04-.11-.23-.29-.23-.29v-.51l.05-.72c.11-.32,0,0,.4,0h.64l.29-.14v-.43l.18-.22h.29l.29.58.18.11.51.4.72-.54.07-.32h.25s.14.18.14.43.07.43.07.43h.51l.04-.76.51-.51s-.18-1.05-.24-1.26c-.06-.22,0-1.08,0-1.08l-.73-.18-.29-.76v-.97l1.26-.36v-.32s-.18-.4-.24-.61c-.06-.22-.19-.27-.19-.27Z"/>
      <path class="cls-23" d="m186.12,165.28s.04,0,.05,0c-.02,0-.03,0-.05,0Z"/>
      <path class="cls-23" d="m186.21,165.3s.01,0,.02,0c0,0,0,0-.02,0Z"/>
      <path class="cls-23" d="m186.32,165.36s.02,0,.03.01c0,0-.02,0-.03-.01Z"/>
      <path class="cls-23" d="m186.18,165.29s.02,0,.03,0c0,0-.02,0-.03,0Z"/>
      <path class="cls-23" d="m186.27,165.33s.01,0,.02.01c0,0-.01,0-.02-.01Z"/>
      <path class="cls-23" d="m186.58,165.47s.02,0,.03.01c-.01,0-.02,0-.03-.01Z"/>
      <polygon class="cls-23" points="177.96 164.62 177.88 164.83 177.96 164.62 177.96 164.62"/>
      <path class="cls-23" d="m186.48,165.44s.02,0,.04.01c-.01,0-.02,0-.04-.01Z"/>
      <path class="cls-23" d="m186.4,165.4s.02,0,.03.01c-.01,0-.02,0-.03-.01Z"/>
      <path class="cls-23" d="m186.72,165.52s-.02,0-.03-.01c0,0,.02,0,.03.01Z"/>
      <path class="cls-23" d="m184.69,165.25c.13,0,.26,0,.37,0-.12,0-.24,0-.37,0Z"/>
      <polygon class="cls-23" points="186.92 165.59 186.92 165.59 186.92 165.59 186.92 165.59"/>
      <path class="cls-23" d="m186.82,165.56s-.01,0-.02,0c0,0,.01,0,.02,0Z"/>
      <path class="cls-23" d="m186.05,165.28s.05,0,.07,0c-.02,0-.04,0-.07,0Z"/>
      <path class="cls-23" d="m185.09,165.25c.05,0,.1,0,.15,0-.05,0-.1,0-.15,0Z"/>
      <path class="cls-23" d="m185.26,165.25c.11,0,.21,0,.3,0-.09,0-.19,0-.3,0Z"/>
      <path class="cls-23" d="m185.72,165.26c.08,0,.15,0,.22,0-.06,0-.14,0-.22,0Z"/>
      <path class="cls-23" d="m185.96,165.27s.05,0,.07,0c-.02,0-.04,0-.07,0Z"/>
      <path class="cls-23" d="m185.59,165.26s.07,0,.11,0c-.03,0-.07,0-.11,0Z"/>
    </g>
    <path class="cls-23" d="m214.73,171.28l-.74.91h-.43l-1.14-.45s.09.66,0,.77c-.09.11,0,.72,0,.72,0,0-.49.25-.6.32-.11.07.07.58.07.58l.32.22v.72c0,.11.43.36.43.36l.25.94.65,1.61,1.79-2.62-.05-.76h-.56v-.65l.67-.22.05-1.55-.72-.57v-.34Z"/>
    <g>
      <path class="cls-23" d="m220,189.15l-.54-.47v-.69l-.81-.51s-.88-.7-1.41-1.12h-.65s-.9-.18-1.05-.25c-.14-.07-.83-.36-1.12-.43-.29-.07,0-.51,0-.51l-.54-.22-1.62.43-.69,1.26-.61.47.47.54s-.04.29-.14.32c-.11.04,0,.97,0,.97l-.18.69v.47c0,.14-.25.54-.25.54l.07.67.65.81.69.54h.4v-.47l.72.07.18,2.35h-.43v-.22s-.4-.22-.54-.22-.16.43-.16.43h-.51s-.38-.51-.49-.65c-.11-.14-.22-.51-.32-.72s-.47-.32-.47-.32c0,0-.58-.32-.72-.43-.14-.11-.61-.18-.61-.18v-.51l-.47-.49-.22-.41-.25,1.08s-.58-.04-.76-.18c-.18-.14-1.08-.07-1.55-.1-.47-.03-.65-.55-.65-.55l-.29-.76-.65.47-.52.18h-.2v-.83h-.61c-.06,0-.1-.02-.13-.06v2.56l-.43.97h-3.14v6.12l2.42,2.17h0l.88-.23,2.16.32.51.65s2.24-.25,2.53-.25.53-.73.53-.73l1.64-1.5,1.23-.35v-.82l.93-.35,2-.28-.38-.27v-.87l4.71-1.68.05-2.98h1.08l.27-.43-.68-.43s.14-.7,0-.92c-.14-.22.24-.49.24-.49l-.49-.43-.05-.54h.97v-.29Z"/>
      <polygon class="cls-23" points="201 202.22 201 202.22 201.19 202.17 201 202.22"/>
      <path class="cls-23" d="m217.17,186.32s.04.03.07.05h0s-.05-.04-.07-.05Z"/>
    </g>
    <path class="cls-23" d="m200.21,147.27v-1.37l-1.01-.94.51-.43v-2.76c0-.3,1.37-.63,1.37-.63v-1.23h1.66v-7l-13.93-7.07-1.75.41.36,3.02.49.43v.76l.65.6-.43,1.48-.32,5.29-1.85,1.62-.97,1.44v1.37h-.7v1.24s.81,2.1.92,2.08c.11-.02.7.68.7.68l1.03.38.7,4.06h-2l-.27.49,1.06,1.14.89.76.7,2h.87l.92-.6s.27.7.43.6c.16-.11.76-.49,1.08-.49s2.33-.11,2.33-.11l.54-.7.38-.7-.65-.37.22-.28h1.5l1.48-.32,2.09-1.46v-1.03l.51-.65h1.19l.16-.49-.85-1.2Z"/>
  </g>
  <image width="944" height="1058" transform="translate(44.21 94.43) scale(.01)" xlink:href="../../../../../Desktop/eCash Logo Pack/white transparent.png"/>
</svg>