<?xml version="1.0" encoding="UTF-8"?>
<svg id="Layer_1" data-name="Layer 1" xmlns="http://www.w3.org/2000/svg" xmlns:xlink="http://www.w3.org/1999/xlink" viewBox="0 0 129 94">
  <defs>
    <style>
      .cls-1 {
        fill: #fff;
      }

      .cls-2 {
        fill: #455a64;
      }

      .cls-3 {
        fill: #e0e0e0;
      }

      .cls-4 {
        clip-path: url(#clippath);
      }

      .cls-5 {
        fill: none;
      }

      .cls-6 {
        fill: #263238;
      }

      .cls-7 {
        fill-rule: evenodd;
      }
    </style>
    <clipPath id="clippath">
      <rect class="cls-5" x="0" width="129" height="94"/>
    </clipPath>
  </defs>
  <g class="cls-4">
    <g>
      <path class="cls-7" d="m.63,39.71c5.85-14.87,32.52-6.67,46.4-15.64,6.91-4.47,3.17-16.73,10.23-20.98,7.33-4.41,17.43-3.66,25.45-.5,7.73,3.05,10.14,11.94,16.52,17.06,9.5,7.63,31.13,8.38,29.7,20.06-1.52,12.36-24.27,8.78-34.24,16.95-6.44,5.28-5.43,15.36-11.77,20.76-9.13,7.78-19.59,18.64-31.64,16.24-11.84-2.37-13.09-18.24-21.11-26.77C20.83,56.93-4.28,52.17.63,39.71Z"/>
      <path class="cls-6" d="m88.83,77.95l-49.06-.02c-.73,0-1.43-.27-1.94-.75-.51-.48-.8-1.13-.8-1.82l.04-68.06c0-.34.07-.67.21-.98.14-.31.34-.6.6-.83.26-.24.56-.43.89-.56.33-.13.69-.2,1.05-.2l49.06.02c.36,0,.72.07,1.05.2.33.13.64.32.89.56.25.24.46.52.6.83.14.31.21.65.21.98l-.04,68.06c0,.68-.29,1.33-.81,1.81-.51.48-1.21.75-1.94.75Z"/>
      <path class="cls-1" d="m89.78,9.81h-51.12v61.13h51.12V9.81Z"/>
      <path class="cls-2" d="m64.3,76.22c1.16,0,2.09-.88,2.09-1.96s-.94-1.96-2.09-1.96-2.09.88-2.09,1.96.94,1.96,2.09,1.96Z"/>
      <path class="cls-3" d="m87.6,62.47c-.16,0-.32-.06-.43-.17-.11-.11-.18-.25-.18-.41l.02-43.39c0-.15.07-.3.18-.41.11-.11.27-.17.43-.17s.32.06.43.17c.12.11.18.25.18.41l-.03,43.39c0,.08-.02.15-.05.22-.03.07-.08.13-.13.19-.06.05-.12.1-.2.13-.07.03-.15.04-.24.04Z"/>
      <path class="cls-1" d="m66.89,20.02c-1.05-.55-2.24-.83-3.45-.78.17-.05.35-.07.53-.07.87-.03,1.73.17,2.48.56.16.07.31.17.44.29Z"/>
      <path class="cls-2" d="m72.26,6.86h-15.85c-.16,0-.29.12-.29.27v.27c0,.15.13.27.29.27h15.85c.16,0,.29-.12.29-.27v-.27c0-.15-.13-.27-.29-.27Z"/>
      <path class="cls-6" d="m79.19,56.29s-6.09.06-13.6.06-13.6-.03-13.6-.06,6.09-.06,13.6-.06,13.6.03,13.6.06Z"/>
      <path class="cls-6" d="m74.93,22.81s-4.74.06-10.59.05c-5.85,0-10.59-.03-10.59-.06s4.74-.06,10.59-.05c5.85,0,10.59.04,10.59.06Z"/>
      <g>
        <path class="cls-6" d="m75.09,25.05s-4.74.06-10.59.05c-5.85,0-10.59-.03-10.59-.06s4.74-.06,10.59-.05c5.85,0,10.59.04,10.59.06Z"/>
        <path class="cls-6" d="m75.31,26.99s-4.74.06-10.59.05c-5.85,0-10.59-.03-10.59-.06s4.74-.06,10.59-.05c5.85,0,10.59.04,10.59.06Z"/>
        <path class="cls-6" d="m75.31,29.72s-4.74.06-10.59.05c-5.85,0-10.59-.03-10.59-.06s4.74-.06,10.59-.05c5.85,0,10.59.04,10.59.06Z"/>
        <path class="cls-6" d="m75.2,31.66s-4.74.06-10.59.05c-5.85,0-10.59-.03-10.59-.06s4.74-.06,10.59-.05c5.85,0,10.59.04,10.59.06Z"/>
        <path class="cls-6" d="m75.41,33.6s-4.74.06-10.59.05c-5.85,0-10.59-.03-10.59-.06s4.74-.06,10.59-.05c5.85,0,10.59.04,10.59.06Z"/>
        <path class="cls-6" d="m75.41,36.32s-4.74.06-10.59.05c-5.85,0-10.59-.03-10.59-.06s4.74-.06,10.59-.05c5.85,0,10.59.04,10.59.06Z"/>
        <path class="cls-6" d="m75.2,38.66s-4.74.06-10.59.05c-5.85,0-10.59-.03-10.59-.06s4.74-.06,10.59-.05c5.85,0,10.59.04,10.59.06Z"/>
        <path class="cls-6" d="m75.41,40.6s-4.74.06-10.59.05c-5.85,0-10.59-.03-10.59-.06s4.74-.06,10.59-.05c5.85,0,10.59.04,10.59.06Z"/>
        <path class="cls-6" d="m75.41,43.32s-4.74.06-10.59.05c-5.85,0-10.59-.03-10.59-.06s4.74-.06,10.59-.05c5.85,0,10.59.04,10.59.06Z"/>
        <path class="cls-6" d="m75.2,45.66s-4.74.06-10.59.05c-5.85,0-10.59-.03-10.59-.06s4.74-.06,10.59-.05c5.85,0,10.59.04,10.59.06Z"/>
        <path class="cls-6" d="m75.41,47.6s-4.74.06-10.59.05c-5.85,0-10.59-.03-10.59-.06s4.74-.06,10.59-.05c5.85,0,10.59.04,10.59.06Z"/>
        <path class="cls-6" d="m75.41,50.32s-4.74.06-10.59.05c-5.85,0-10.59-.03-10.59-.06s4.74-.06,10.59-.05c5.85,0,10.59.04,10.59.06Z"/>
      </g>
      <path class="cls-6" d="m26.68,26.64c.1,0,.2,0,.29.04.13.05.25.14.33.25.08.11.13.24.13.38l.02,2.95c0,1.27,0,2.79.01,4.52v1.33c.01.19-.06.37-.19.52-.13.14-.32.23-.52.25h-3.6l.05-.03-1.22,1.86-.05.07-.05-.07-1.4-1.86.05.02h-3.69c-.1-.01-.2-.04-.29-.09-.09-.05-.17-.11-.23-.19-.12-.15-.18-.35-.16-.54v-8.79c0-.15.07-.3.17-.42.1-.12.24-.21.4-.25.15-.03.3-.03.46-.02h2.89l4.83.02h1.77-1.77l-4.83.02h-2.89c-.14,0-.29,0-.43.02-.14.04-.26.11-.35.21-.09.1-.14.23-.15.36v8.79c-.02.17.03.33.14.47.05.07.12.12.2.16.08.04.16.07.25.08h3.7l.02.02,1.4,1.86h-.1l1.22-1.86.02-.03h3.63c.12,0,.23-.05.33-.11.1-.06.17-.15.22-.24.05-.1.07-.21.07-.31v-1.33c0-1.73,0-3.25.01-4.52l.02-2.95c0-.15-.06-.29-.15-.41-.07-.09-.17-.15-.27-.2-.09,0-.17,0-.26,0Z"/>
      <path class="cls-6" d="m20.93,33.94s0-.03-.02-.07c-.02-.07-.06-.12-.12-.16-.05-.03-.1-.05-.16-.06-.06,0-.12,0-.17.03-.05.02-.1.06-.13.11-.03.05-.05.1-.05.16s.02.11.05.16c.03.05.08.08.13.11.05.02.11.03.17.03.06,0,.11-.02.16-.06.06-.04.1-.1.12-.16.01-.05.01-.08.02-.07,0,.03,0,.05,0,.08-.02.07-.06.14-.12.18-.05.03-.1.06-.16.07-.06,0-.12,0-.17-.01-.07-.02-.13-.07-.17-.12-.04-.06-.06-.12-.06-.19s.02-.14.06-.19c.04-.06.1-.1.17-.12.06-.02.12-.02.17-.01.06,0,.11.03.16.07.06.05.11.11.12.18,0,.03,0,.05,0,.08Z"/>
      <path class="cls-6" d="m20.54,34.31c-.09-.01-.17-.05-.23-.11-.06-.06-.1-.14-.11-.22,0-.08.01-.17.06-.24.05-.07.12-.12.2-.15.06-.02.13-.03.19-.02.07.01.13.04.18.07.07.05.12.12.14.2,0,.06,0,.11,0,.17-.02.08-.07.15-.14.21-.04.03-.09.05-.14.07-.05.01-.1.02-.16.01Zm.1-.62s-.09,0-.14.01c-.05.02-.1.05-.13.09-.03.04-.05.09-.05.15s.02.1.05.14c.03.04.08.08.13.09.04.01.09.02.13.01.05,0,.09-.02.13-.05.05-.04.09-.09.11-.14,0-.02,0-.04.01-.05v-.02s0-.04-.01-.05c-.02-.06-.06-.11-.11-.14-.04-.03-.08-.05-.12-.05h0Z"/>
      <path class="cls-6" d="m23.09,33.94s0-.03-.02-.07c-.02-.07-.06-.12-.12-.16-.05-.03-.1-.05-.16-.06-.06,0-.12,0-.17.03-.05.02-.1.06-.13.11-.03.05-.05.1-.05.16s.02.11.05.16c.03.05.07.08.13.11s.11.03.17.03c.06,0,.11-.02.16-.06.06-.04.1-.1.12-.16.01-.05.01-.08.02-.07,0,.03,0,.05,0,.08-.02.07-.06.14-.12.18-.05.03-.1.06-.16.07-.06,0-.12,0-.17-.01-.07-.02-.13-.07-.17-.12-.04-.06-.07-.12-.07-.19s.02-.14.07-.19c.04-.06.1-.1.17-.12.06-.02.12-.02.17-.01.06,0,.11.03.16.07.06.05.11.11.12.18,0,.03,0,.05,0,.08Z"/>
      <path class="cls-6" d="m22.69,34.31c-.06,0-.12-.03-.16-.06-.05-.03-.09-.07-.12-.12-.03-.05-.05-.1-.05-.16,0-.06,0-.11.03-.16.02-.05.06-.1.1-.14.04-.04.1-.06.16-.08.06-.02.12-.02.18,0,.06,0,.11.03.16.06.07.05.12.12.14.2,0,.06,0,.11,0,.17-.02.08-.07.16-.14.21-.04.03-.09.06-.14.07-.05.01-.1.02-.16.01Zm.11-.62s-.09,0-.14.01c-.05.02-.1.05-.13.09-.03.04-.05.09-.05.15s.02.1.05.15c.03.04.08.08.13.09.04.01.09.02.13.01.05,0,.09-.02.13-.05.05-.04.09-.09.11-.14,0-.02,0-.04.01-.05v-.02s0-.04-.01-.05c-.02-.06-.06-.11-.11-.14-.04-.02-.08-.04-.12-.05Z"/>
      <path class="cls-1" d="m23.26,30.89l.17-.16.32.27.64-.57.15.16-.82.72-.47-.42Z"/>
    </g>
  </g>
</svg>